<?xml version="1.0" encoding="utf-8"?>
<svg xmlns="http://www.w3.org/2000/svg" xmlns:xlink="http://www.w3.org/1999/xlink" width="600" height="400" viewBox="0 0 2400 1600">
<defs>
  <clipPath id="clip330">
    <rect x="0" y="0" width="2400" height="1600"/>
  </clipPath>
</defs>
<path clip-path="url(#clip330)" d="M0 1600 L2400 1600 L2400 0 L0 0  Z" fill="#ffffff" fill-rule="evenodd" fill-opacity="1"/>
<defs>
  <clipPath id="clip331">
    <rect x="156" y="123" width="2197" height="1301"/>
  </clipPath>
</defs>
<path clip-path="url(#clip330)" d="M156.274 1423.18 L2352.76 1423.18 L2352.76 123.472 L156.274 123.472  Z" fill="#ffffff" fill-rule="evenodd" fill-opacity="1"/>
<polyline clip-path="url(#clip331)" style="stroke:#000000; stroke-linecap:round; stroke-linejoin:round; stroke-width:2; stroke-opacity:0.1; fill:none" points="218.439,1423.18 218.439,123.472 "/>
<polyline clip-path="url(#clip331)" style="stroke:#000000; stroke-linecap:round; stroke-linejoin:round; stroke-width:2; stroke-opacity:0.1; fill:none" points="909.156,1423.18 909.156,123.472 "/>
<polyline clip-path="url(#clip331)" style="stroke:#000000; stroke-linecap:round; stroke-linejoin:round; stroke-width:2; stroke-opacity:0.1; fill:none" points="1599.87,1423.18 1599.87,123.472 "/>
<polyline clip-path="url(#clip331)" style="stroke:#000000; stroke-linecap:round; stroke-linejoin:round; stroke-width:2; stroke-opacity:0.1; fill:none" points="2290.59,1423.18 2290.59,123.472 "/>
<polyline clip-path="url(#clip331)" style="stroke:#000000; stroke-linecap:round; stroke-linejoin:round; stroke-width:2; stroke-opacity:0.1; fill:none" points="156.274,1288.33 2352.76,1288.33 "/>
<polyline clip-path="url(#clip331)" style="stroke:#000000; stroke-linecap:round; stroke-linejoin:round; stroke-width:2; stroke-opacity:0.1; fill:none" points="156.274,1053.72 2352.76,1053.72 "/>
<polyline clip-path="url(#clip331)" style="stroke:#000000; stroke-linecap:round; stroke-linejoin:round; stroke-width:2; stroke-opacity:0.1; fill:none" points="156.274,819.101 2352.76,819.101 "/>
<polyline clip-path="url(#clip331)" style="stroke:#000000; stroke-linecap:round; stroke-linejoin:round; stroke-width:2; stroke-opacity:0.1; fill:none" points="156.274,584.485 2352.76,584.485 "/>
<polyline clip-path="url(#clip331)" style="stroke:#000000; stroke-linecap:round; stroke-linejoin:round; stroke-width:2; stroke-opacity:0.1; fill:none" points="156.274,349.869 2352.76,349.869 "/>
<polyline clip-path="url(#clip330)" style="stroke:#000000; stroke-linecap:round; stroke-linejoin:round; stroke-width:4; stroke-opacity:1; fill:none" points="156.274,1423.18 2352.76,1423.18 "/>
<polyline clip-path="url(#clip330)" style="stroke:#000000; stroke-linecap:round; stroke-linejoin:round; stroke-width:4; stroke-opacity:1; fill:none" points="218.439,1423.18 218.439,1404.28 "/>
<polyline clip-path="url(#clip330)" style="stroke:#000000; stroke-linecap:round; stroke-linejoin:round; stroke-width:4; stroke-opacity:1; fill:none" points="909.156,1423.18 909.156,1404.28 "/>
<polyline clip-path="url(#clip330)" style="stroke:#000000; stroke-linecap:round; stroke-linejoin:round; stroke-width:4; stroke-opacity:1; fill:none" points="1599.87,1423.18 1599.87,1404.28 "/>
<polyline clip-path="url(#clip330)" style="stroke:#000000; stroke-linecap:round; stroke-linejoin:round; stroke-width:4; stroke-opacity:1; fill:none" points="2290.59,1423.18 2290.59,1404.28 "/>
<path clip-path="url(#clip330)" d="M218.439 1454.1 Q214.828 1454.1 212.999 1457.66 Q211.193 1461.2 211.193 1468.33 Q211.193 1475.44 212.999 1479.01 Q214.828 1482.55 218.439 1482.55 Q222.073 1482.55 223.879 1479.01 Q225.707 1475.44 225.707 1468.33 Q225.707 1461.2 223.879 1457.66 Q222.073 1454.1 218.439 1454.1 M218.439 1450.39 Q224.249 1450.39 227.304 1455 Q230.383 1459.58 230.383 1468.33 Q230.383 1477.06 227.304 1481.67 Q224.249 1486.25 218.439 1486.25 Q212.629 1486.25 209.55 1481.67 Q206.494 1477.06 206.494 1468.33 Q206.494 1459.58 209.55 1455 Q212.629 1450.39 218.439 1450.39 Z" fill="#000000" fill-rule="nonzero" fill-opacity="1" /><path clip-path="url(#clip330)" d="M899.538 1481.64 L907.177 1481.64 L907.177 1455.28 L898.867 1456.95 L898.867 1452.69 L907.131 1451.02 L911.807 1451.02 L911.807 1481.64 L919.446 1481.64 L919.446 1485.58 L899.538 1485.58 L899.538 1481.64 Z" fill="#000000" fill-rule="nonzero" fill-opacity="1" /><path clip-path="url(#clip330)" d="M1594.53 1481.64 L1610.85 1481.64 L1610.85 1485.58 L1588.9 1485.58 L1588.9 1481.64 Q1591.56 1478.89 1596.15 1474.26 Q1600.75 1469.61 1601.93 1468.27 Q1604.18 1465.74 1605.06 1464.01 Q1605.96 1462.25 1605.96 1460.56 Q1605.96 1457.8 1604.02 1456.07 Q1602.1 1454.33 1598.99 1454.33 Q1596.8 1454.33 1594.34 1455.09 Q1591.91 1455.86 1589.13 1457.41 L1589.13 1452.69 Q1591.96 1451.55 1594.41 1450.97 Q1596.86 1450.39 1598.9 1450.39 Q1604.27 1450.39 1607.47 1453.08 Q1610.66 1455.77 1610.66 1460.26 Q1610.66 1462.39 1609.85 1464.31 Q1609.06 1466.2 1606.96 1468.8 Q1606.38 1469.47 1603.28 1472.69 Q1600.17 1475.88 1594.53 1481.64 Z" fill="#000000" fill-rule="nonzero" fill-opacity="1" /><path clip-path="url(#clip330)" d="M2294.84 1466.95 Q2298.2 1467.66 2300.07 1469.93 Q2301.97 1472.2 2301.97 1475.53 Q2301.97 1480.65 2298.45 1483.45 Q2294.93 1486.25 2288.45 1486.25 Q2286.27 1486.25 2283.96 1485.81 Q2281.67 1485.39 2279.21 1484.54 L2279.21 1480.02 Q2281.16 1481.16 2283.47 1481.74 Q2285.79 1482.32 2288.31 1482.32 Q2292.71 1482.32 2295 1480.58 Q2297.32 1478.84 2297.32 1475.53 Q2297.32 1472.48 2295.16 1470.77 Q2293.03 1469.03 2289.21 1469.03 L2285.19 1469.03 L2285.19 1465.19 L2289.4 1465.19 Q2292.85 1465.19 2294.68 1463.82 Q2296.51 1462.43 2296.51 1459.84 Q2296.51 1457.18 2294.61 1455.77 Q2292.73 1454.33 2289.21 1454.33 Q2287.29 1454.33 2285.09 1454.75 Q2282.89 1455.16 2280.26 1456.04 L2280.26 1451.88 Q2282.92 1451.14 2285.23 1450.77 Q2287.57 1450.39 2289.63 1450.39 Q2294.95 1450.39 2298.06 1452.83 Q2301.16 1455.23 2301.16 1459.35 Q2301.16 1462.22 2299.51 1464.21 Q2297.87 1466.18 2294.84 1466.95 Z" fill="#000000" fill-rule="nonzero" fill-opacity="1" /><path clip-path="url(#clip330)" d="M1176.39 1520.52 L1216.59 1520.52 L1216.59 1525.93 L1199.72 1525.93 L1199.72 1568.04 L1193.26 1568.04 L1193.26 1525.93 L1176.39 1525.93 L1176.39 1520.52 Z" fill="#000000" fill-rule="nonzero" fill-opacity="1" /><path clip-path="url(#clip330)" d="M1220.54 1532.4 L1226.39 1532.4 L1226.39 1568.04 L1220.54 1568.04 L1220.54 1532.4 M1220.54 1518.52 L1226.39 1518.52 L1226.39 1525.93 L1220.54 1525.93 L1220.54 1518.52 Z" fill="#000000" fill-rule="nonzero" fill-opacity="1" /><path clip-path="url(#clip330)" d="M1266.4 1539.24 Q1268.6 1535.29 1271.65 1533.41 Q1274.71 1531.54 1278.85 1531.54 Q1284.42 1531.54 1287.44 1535.45 Q1290.47 1539.33 1290.47 1546.53 L1290.47 1568.04 L1284.58 1568.04 L1284.58 1546.72 Q1284.58 1541.59 1282.76 1539.11 Q1280.95 1536.63 1277.22 1536.63 Q1272.67 1536.63 1270.03 1539.65 Q1267.39 1542.68 1267.39 1547.9 L1267.39 1568.04 L1261.5 1568.04 L1261.5 1546.72 Q1261.5 1541.56 1259.69 1539.11 Q1257.87 1536.63 1254.09 1536.63 Q1249.6 1536.63 1246.96 1539.68 Q1244.31 1542.71 1244.31 1547.9 L1244.31 1568.04 L1238.43 1568.04 L1238.43 1532.4 L1244.31 1532.4 L1244.31 1537.93 Q1246.32 1534.66 1249.12 1533.1 Q1251.92 1531.54 1255.77 1531.54 Q1259.66 1531.54 1262.36 1533.51 Q1265.1 1535.48 1266.4 1539.24 Z" fill="#000000" fill-rule="nonzero" fill-opacity="1" /><path clip-path="url(#clip330)" d="M1332.64 1548.76 L1332.64 1551.62 L1305.71 1551.62 Q1306.09 1557.67 1309.34 1560.85 Q1312.62 1564 1318.44 1564 Q1321.82 1564 1324.97 1563.17 Q1328.15 1562.35 1331.27 1560.69 L1331.27 1566.23 Q1328.12 1567.57 1324.81 1568.27 Q1321.5 1568.97 1318.09 1568.97 Q1309.56 1568.97 1304.57 1564 Q1299.6 1559.04 1299.6 1550.57 Q1299.6 1541.82 1304.31 1536.69 Q1309.05 1531.54 1317.07 1531.54 Q1324.27 1531.54 1328.44 1536.18 Q1332.64 1540.8 1332.64 1548.76 M1326.78 1547.04 Q1326.72 1542.23 1324.08 1539.37 Q1321.47 1536.5 1317.14 1536.5 Q1312.24 1536.5 1309.28 1539.27 Q1306.35 1542.04 1305.9 1547.07 L1326.78 1547.04 Z" fill="#000000" fill-rule="nonzero" fill-opacity="1" /><polyline clip-path="url(#clip330)" style="stroke:#000000; stroke-linecap:round; stroke-linejoin:round; stroke-width:4; stroke-opacity:1; fill:none" points="156.274,1423.18 156.274,123.472 "/>
<polyline clip-path="url(#clip330)" style="stroke:#000000; stroke-linecap:round; stroke-linejoin:round; stroke-width:4; stroke-opacity:1; fill:none" points="156.274,1288.33 175.172,1288.33 "/>
<polyline clip-path="url(#clip330)" style="stroke:#000000; stroke-linecap:round; stroke-linejoin:round; stroke-width:4; stroke-opacity:1; fill:none" points="156.274,1053.72 175.172,1053.72 "/>
<polyline clip-path="url(#clip330)" style="stroke:#000000; stroke-linecap:round; stroke-linejoin:round; stroke-width:4; stroke-opacity:1; fill:none" points="156.274,819.101 175.172,819.101 "/>
<polyline clip-path="url(#clip330)" style="stroke:#000000; stroke-linecap:round; stroke-linejoin:round; stroke-width:4; stroke-opacity:1; fill:none" points="156.274,584.485 175.172,584.485 "/>
<polyline clip-path="url(#clip330)" style="stroke:#000000; stroke-linecap:round; stroke-linejoin:round; stroke-width:4; stroke-opacity:1; fill:none" points="156.274,349.869 175.172,349.869 "/>
<path clip-path="url(#clip330)" d="M62.9365 1274.13 Q59.3254 1274.13 57.4967 1277.7 Q55.6912 1281.24 55.6912 1288.37 Q55.6912 1295.47 57.4967 1299.04 Q59.3254 1302.58 62.9365 1302.58 Q66.5707 1302.58 68.3763 1299.04 Q70.205 1295.47 70.205 1288.37 Q70.205 1281.24 68.3763 1277.7 Q66.5707 1274.13 62.9365 1274.13 M62.9365 1270.43 Q68.7467 1270.43 71.8022 1275.03 Q74.8809 1279.62 74.8809 1288.37 Q74.8809 1297.09 71.8022 1301.7 Q68.7467 1306.28 62.9365 1306.28 Q57.1264 1306.28 54.0477 1301.7 Q50.9921 1297.09 50.9921 1288.37 Q50.9921 1279.62 54.0477 1275.03 Q57.1264 1270.43 62.9365 1270.43 Z" fill="#000000" fill-rule="nonzero" fill-opacity="1" /><path clip-path="url(#clip330)" d="M83.0984 1299.73 L87.9827 1299.73 L87.9827 1305.61 L83.0984 1305.61 L83.0984 1299.73 Z" fill="#000000" fill-rule="nonzero" fill-opacity="1" /><path clip-path="url(#clip330)" d="M108.746 1286.47 Q105.598 1286.47 103.746 1288.62 Q101.918 1290.77 101.918 1294.52 Q101.918 1298.25 103.746 1300.43 Q105.598 1302.58 108.746 1302.58 Q111.895 1302.58 113.723 1300.43 Q115.575 1298.25 115.575 1294.52 Q115.575 1290.77 113.723 1288.62 Q111.895 1286.47 108.746 1286.47 M118.029 1271.82 L118.029 1276.08 Q116.27 1275.24 114.464 1274.8 Q112.682 1274.36 110.922 1274.36 Q106.293 1274.36 103.839 1277.49 Q101.409 1280.61 101.061 1286.93 Q102.427 1284.92 104.487 1283.85 Q106.547 1282.77 109.024 1282.77 Q114.233 1282.77 117.242 1285.94 Q120.274 1289.08 120.274 1294.52 Q120.274 1299.85 117.126 1303.07 Q113.978 1306.28 108.746 1306.28 Q102.751 1306.28 99.5798 1301.7 Q96.4085 1297.09 96.4085 1288.37 Q96.4085 1280.17 100.297 1275.31 Q104.186 1270.43 110.737 1270.43 Q112.496 1270.43 114.279 1270.77 Q116.084 1271.12 118.029 1271.82 Z" fill="#000000" fill-rule="nonzero" fill-opacity="1" /><path clip-path="url(#clip330)" d="M63.2837 1039.52 Q59.6726 1039.52 57.8439 1043.08 Q56.0384 1046.62 56.0384 1053.75 Q56.0384 1060.86 57.8439 1064.42 Q59.6726 1067.96 63.2837 1067.96 Q66.918 1067.96 68.7235 1064.42 Q70.5522 1060.86 70.5522 1053.75 Q70.5522 1046.62 68.7235 1043.08 Q66.918 1039.52 63.2837 1039.52 M63.2837 1035.81 Q69.0939 1035.81 72.1494 1040.42 Q75.2281 1045 75.2281 1053.75 Q75.2281 1062.48 72.1494 1067.08 Q69.0939 1071.67 63.2837 1071.67 Q57.4736 1071.67 54.3949 1067.08 Q51.3393 1062.48 51.3393 1053.75 Q51.3393 1045 54.3949 1040.42 Q57.4736 1035.81 63.2837 1035.81 Z" fill="#000000" fill-rule="nonzero" fill-opacity="1" /><path clip-path="url(#clip330)" d="M83.4457 1065.12 L88.3299 1065.12 L88.3299 1071 L83.4457 1071 L83.4457 1065.12 Z" fill="#000000" fill-rule="nonzero" fill-opacity="1" /><path clip-path="url(#clip330)" d="M98.6539 1070.28 L98.6539 1066.02 Q100.413 1066.85 102.219 1067.29 Q104.024 1067.73 105.76 1067.73 Q110.39 1067.73 112.82 1064.63 Q115.274 1061.51 115.621 1055.16 Q114.279 1057.15 112.219 1058.22 Q110.158 1059.28 107.658 1059.28 Q102.473 1059.28 99.4409 1056.16 Q96.4317 1053.01 96.4317 1047.57 Q96.4317 1042.25 99.5798 1039.03 Q102.728 1035.81 107.959 1035.81 Q113.955 1035.81 117.103 1040.42 Q120.274 1045 120.274 1053.75 Q120.274 1061.92 116.385 1066.81 Q112.52 1071.67 105.969 1071.67 Q104.209 1071.67 102.404 1071.32 Q100.598 1070.97 98.6539 1070.28 M107.959 1055.63 Q111.108 1055.63 112.936 1053.47 Q114.788 1051.32 114.788 1047.57 Q114.788 1043.84 112.936 1041.69 Q111.108 1039.52 107.959 1039.52 Q104.811 1039.52 102.959 1041.69 Q101.131 1043.84 101.131 1047.57 Q101.131 1051.32 102.959 1053.47 Q104.811 1055.63 107.959 1055.63 Z" fill="#000000" fill-rule="nonzero" fill-opacity="1" /><path clip-path="url(#clip330)" d="M55.506 832.445 L63.1448 832.445 L63.1448 806.08 L54.8347 807.746 L54.8347 803.487 L63.0985 801.821 L67.7744 801.821 L67.7744 832.445 L75.4133 832.445 L75.4133 836.381 L55.506 836.381 L55.506 832.445 Z" fill="#000000" fill-rule="nonzero" fill-opacity="1" /><path clip-path="url(#clip330)" d="M84.8577 830.501 L89.7419 830.501 L89.7419 836.381 L84.8577 836.381 L84.8577 830.501 Z" fill="#000000" fill-rule="nonzero" fill-opacity="1" /><path clip-path="url(#clip330)" d="M103.955 832.445 L120.274 832.445 L120.274 836.381 L98.3298 836.381 L98.3298 832.445 Q100.992 829.691 105.575 825.061 Q110.182 820.408 111.362 819.066 Q113.608 816.543 114.487 814.807 Q115.39 813.047 115.39 811.358 Q115.39 808.603 113.445 806.867 Q111.524 805.131 108.422 805.131 Q106.223 805.131 103.77 805.895 Q101.339 806.659 98.5613 808.209 L98.5613 803.487 Q101.385 802.353 103.839 801.774 Q106.293 801.196 108.33 801.196 Q113.7 801.196 116.895 803.881 Q120.089 806.566 120.089 811.057 Q120.089 813.186 119.279 815.108 Q118.492 817.006 116.385 819.598 Q115.807 820.27 112.705 823.487 Q109.603 826.682 103.955 832.445 Z" fill="#000000" fill-rule="nonzero" fill-opacity="1" /><path clip-path="url(#clip330)" d="M54.9041 597.829 L62.543 597.829 L62.543 571.464 L54.2328 573.131 L54.2328 568.871 L62.4967 567.205 L67.1726 567.205 L67.1726 597.829 L74.8114 597.829 L74.8114 601.765 L54.9041 601.765 L54.9041 597.829 Z" fill="#000000" fill-rule="nonzero" fill-opacity="1" /><path clip-path="url(#clip330)" d="M84.2558 595.885 L89.1401 595.885 L89.1401 601.765 L84.2558 601.765 L84.2558 595.885 Z" fill="#000000" fill-rule="nonzero" fill-opacity="1" /><path clip-path="url(#clip330)" d="M99.3715 567.205 L117.728 567.205 L117.728 571.14 L103.654 571.14 L103.654 579.612 Q104.672 579.265 105.691 579.103 Q106.709 578.918 107.728 578.918 Q113.515 578.918 116.895 582.089 Q120.274 585.26 120.274 590.677 Q120.274 596.255 116.802 599.357 Q113.33 602.436 107.01 602.436 Q104.834 602.436 102.566 602.066 Q100.321 601.695 97.9132 600.954 L97.9132 596.255 Q99.9965 597.39 102.219 597.945 Q104.441 598.501 106.918 598.501 Q110.922 598.501 113.26 596.394 Q115.598 594.288 115.598 590.677 Q115.598 587.066 113.26 584.959 Q110.922 582.853 106.918 582.853 Q105.043 582.853 103.168 583.269 Q101.316 583.686 99.3715 584.566 L99.3715 567.205 Z" fill="#000000" fill-rule="nonzero" fill-opacity="1" /><path clip-path="url(#clip330)" d="M54.0014 363.214 L61.6402 363.214 L61.6402 336.848 L53.3301 338.515 L53.3301 334.255 L61.5939 332.589 L66.2698 332.589 L66.2698 363.214 L73.9087 363.214 L73.9087 367.149 L54.0014 367.149 L54.0014 363.214 Z" fill="#000000" fill-rule="nonzero" fill-opacity="1" /><path clip-path="url(#clip330)" d="M83.3531 361.269 L88.2373 361.269 L88.2373 367.149 L83.3531 367.149 L83.3531 361.269 Z" fill="#000000" fill-rule="nonzero" fill-opacity="1" /><path clip-path="url(#clip330)" d="M108.422 350.737 Q105.089 350.737 103.168 352.519 Q101.27 354.302 101.27 357.427 Q101.27 360.552 103.168 362.334 Q105.089 364.116 108.422 364.116 Q111.756 364.116 113.677 362.334 Q115.598 360.528 115.598 357.427 Q115.598 354.302 113.677 352.519 Q111.779 350.737 108.422 350.737 M103.746 348.746 Q100.737 348.005 99.0474 345.945 Q97.3808 343.885 97.3808 340.922 Q97.3808 336.779 100.321 334.371 Q103.284 331.964 108.422 331.964 Q113.584 331.964 116.524 334.371 Q119.464 336.779 119.464 340.922 Q119.464 343.885 117.774 345.945 Q116.108 348.005 113.121 348.746 Q116.501 349.533 118.376 351.825 Q120.274 354.116 120.274 357.427 Q120.274 362.45 117.195 365.135 Q114.14 367.82 108.422 367.82 Q102.705 367.82 99.6261 365.135 Q96.5706 362.45 96.5706 357.427 Q96.5706 354.116 98.4687 351.825 Q100.367 349.533 103.746 348.746 M102.034 341.362 Q102.034 344.047 103.7 345.552 Q105.39 347.056 108.422 347.056 Q111.432 347.056 113.121 345.552 Q114.834 344.047 114.834 341.362 Q114.834 338.677 113.121 337.172 Q111.432 335.667 108.422 335.667 Q105.39 335.667 103.7 337.172 Q102.034 338.677 102.034 341.362 Z" fill="#000000" fill-rule="nonzero" fill-opacity="1" /><path clip-path="url(#clip330)" d="M891.959 14.0809 L891.959 22.0612 Q887.301 19.8332 883.169 18.7395 Q879.037 17.6457 875.188 17.6457 Q868.504 17.6457 864.859 20.2383 Q861.253 22.8309 861.253 27.611 Q861.253 31.6214 863.643 33.6873 Q866.074 35.7128 872.798 36.9686 L877.74 37.9813 Q886.895 39.7232 891.23 44.1387 Q895.605 48.5136 895.605 55.8863 Q895.605 64.6767 889.691 69.2137 Q883.817 73.7508 872.434 73.7508 Q868.14 73.7508 863.279 72.7785 Q858.458 71.8063 853.273 69.9024 L853.273 61.4765 Q858.256 64.2716 863.036 65.6895 Q867.816 67.1073 872.434 67.1073 Q879.442 67.1073 883.25 64.3527 Q887.058 61.598 887.058 56.4939 Q887.058 52.0379 884.303 49.5264 Q881.589 47.0148 875.35 45.759 L870.368 44.7868 Q861.213 42.9639 857.121 39.075 Q853.03 35.1862 853.03 28.2591 Q853.03 20.2383 858.661 15.6203 Q864.332 11.0023 874.257 11.0023 Q878.51 11.0023 882.926 11.7719 Q887.341 12.5416 891.959 14.0809 Z" fill="#000000" fill-rule="nonzero" fill-opacity="1" /><path clip-path="url(#clip330)" d="M915.414 14.324 L915.414 27.2059 L930.767 27.2059 L930.767 32.9987 L915.414 32.9987 L915.414 57.6282 Q915.414 63.1779 916.913 64.7578 Q918.452 66.3376 923.111 66.3376 L930.767 66.3376 L930.767 72.576 L923.111 72.576 Q914.482 72.576 911.201 69.3758 Q907.92 66.1351 907.92 57.6282 L907.92 32.9987 L902.451 32.9987 L902.451 27.2059 L907.92 27.2059 L907.92 14.324 L915.414 14.324 Z" fill="#000000" fill-rule="nonzero" fill-opacity="1" /><path clip-path="url(#clip330)" d="M958.151 32.4315 Q952.156 32.4315 948.672 37.1306 Q945.188 41.7891 945.188 49.9314 Q945.188 58.0738 948.631 62.7728 Q952.115 67.4314 958.151 67.4314 Q964.106 67.4314 967.589 62.7323 Q971.073 58.0333 971.073 49.9314 Q971.073 41.8701 967.589 37.1711 Q964.106 32.4315 958.151 32.4315 M958.151 26.1121 Q967.873 26.1121 973.423 32.4315 Q978.973 38.7509 978.973 49.9314 Q978.973 61.0714 973.423 67.4314 Q967.873 73.7508 958.151 73.7508 Q948.388 73.7508 942.838 67.4314 Q937.329 61.0714 937.329 49.9314 Q937.329 38.7509 942.838 32.4315 Q948.388 26.1121 958.151 26.1121 Z" fill="#000000" fill-rule="nonzero" fill-opacity="1" /><path clip-path="url(#clip330)" d="M1023.98 28.9478 L1023.98 35.9153 Q1020.82 34.1734 1017.62 33.3227 Q1014.46 32.4315 1011.22 32.4315 Q1003.97 32.4315 999.956 37.0496 Q995.946 41.6271 995.946 49.9314 Q995.946 58.2358 999.956 62.8538 Q1003.97 67.4314 1011.22 67.4314 Q1014.46 67.4314 1017.62 66.5807 Q1020.82 65.6895 1023.98 63.9476 L1023.98 70.8341 Q1020.86 72.2924 1017.5 73.0216 Q1014.17 73.7508 1010.41 73.7508 Q1000.16 73.7508 994.123 67.3098 Q988.087 60.8689 988.087 49.9314 Q988.087 38.832 994.163 32.472 Q1000.28 26.1121 1010.89 26.1121 Q1014.34 26.1121 1017.62 26.8413 Q1020.9 27.5299 1023.98 28.9478 Z" fill="#000000" fill-rule="nonzero" fill-opacity="1" /><path clip-path="url(#clip330)" d="M1074.65 45.1919 L1074.65 72.576 L1067.2 72.576 L1067.2 45.4349 Q1067.2 38.994 1064.69 35.7938 Q1062.18 32.5936 1057.15 32.5936 Q1051.12 32.5936 1047.64 36.4419 Q1044.15 40.2903 1044.15 46.9338 L1044.15 72.576 L1036.66 72.576 L1036.66 9.54393 L1044.15 9.54393 L1044.15 34.2544 Q1046.83 30.163 1050.43 28.1376 Q1054.08 26.1121 1058.82 26.1121 Q1066.63 26.1121 1070.64 30.9732 Q1074.65 35.7938 1074.65 45.1919 Z" fill="#000000" fill-rule="nonzero" fill-opacity="1" /><path clip-path="url(#clip330)" d="M1110.14 49.7694 Q1101.11 49.7694 1097.62 51.8354 Q1094.14 53.9013 1094.14 58.8839 Q1094.14 62.8538 1096.73 65.2034 Q1099.37 67.5124 1103.86 67.5124 Q1110.06 67.5124 1113.79 63.1374 Q1117.55 58.7219 1117.55 51.4303 L1117.55 49.7694 L1110.14 49.7694 M1125.01 46.6907 L1125.01 72.576 L1117.55 72.576 L1117.55 65.6895 Q1115 69.8214 1111.19 71.8063 Q1107.39 73.7508 1101.88 73.7508 Q1094.91 73.7508 1090.78 69.8619 Q1086.69 65.9325 1086.69 59.3701 Q1086.69 51.7138 1091.79 47.825 Q1096.93 43.9361 1107.1 43.9361 L1117.55 43.9361 L1117.55 43.2069 Q1117.55 38.0623 1114.15 35.2672 Q1110.79 32.4315 1104.67 32.4315 Q1100.78 32.4315 1097.1 33.3632 Q1093.41 34.295 1090.01 36.1584 L1090.01 29.2718 Q1094.1 27.692 1097.95 26.9223 Q1101.8 26.1121 1105.44 26.1121 Q1115.29 26.1121 1120.15 31.2163 Q1125.01 36.3204 1125.01 46.6907 Z" fill="#000000" fill-rule="nonzero" fill-opacity="1" /><path clip-path="url(#clip330)" d="M1169.28 28.5427 L1169.28 35.5912 Q1166.12 33.9709 1162.72 33.1607 Q1159.32 32.3505 1155.67 32.3505 Q1150.12 32.3505 1147.33 34.0519 Q1144.57 35.7533 1144.57 39.156 Q1144.57 41.7486 1146.56 43.2475 Q1148.54 44.7058 1154.54 46.0426 L1157.09 46.6097 Q1165.03 48.3111 1168.35 51.4303 Q1171.71 54.509 1171.71 60.0587 Q1171.71 66.3781 1166.69 70.0644 Q1161.71 73.7508 1152.96 73.7508 Q1149.31 73.7508 1145.34 73.0216 Q1141.41 72.3329 1137.04 70.9151 L1137.04 63.2184 Q1141.17 65.3654 1145.18 66.4591 Q1149.19 67.5124 1153.12 67.5124 Q1158.39 67.5124 1161.22 65.73 Q1164.06 63.9071 1164.06 60.6258 Q1164.06 57.5877 1161.99 55.9673 Q1159.97 54.3469 1153.04 52.8481 L1150.45 52.2405 Q1143.52 50.7821 1140.44 47.7845 Q1137.36 44.7463 1137.36 39.4801 Q1137.36 33.0797 1141.9 29.5959 Q1146.44 26.1121 1154.78 26.1121 Q1158.91 26.1121 1162.56 26.7198 Q1166.21 27.3274 1169.28 28.5427 Z" fill="#000000" fill-rule="nonzero" fill-opacity="1" /><path clip-path="url(#clip330)" d="M1190.96 14.324 L1190.96 27.2059 L1206.31 27.2059 L1206.31 32.9987 L1190.96 32.9987 L1190.96 57.6282 Q1190.96 63.1779 1192.46 64.7578 Q1193.99 66.3376 1198.65 66.3376 L1206.31 66.3376 L1206.31 72.576 L1198.65 72.576 Q1190.02 72.576 1186.74 69.3758 Q1183.46 66.1351 1183.46 57.6282 L1183.46 32.9987 L1177.99 32.9987 L1177.99 27.2059 L1183.46 27.2059 L1183.46 14.324 L1190.96 14.324 Z" fill="#000000" fill-rule="nonzero" fill-opacity="1" /><path clip-path="url(#clip330)" d="M1216.11 27.2059 L1223.57 27.2059 L1223.57 72.576 L1216.11 72.576 L1216.11 27.2059 M1216.11 9.54393 L1223.57 9.54393 L1223.57 18.9825 L1216.11 18.9825 L1216.11 9.54393 Z" fill="#000000" fill-rule="nonzero" fill-opacity="1" /><path clip-path="url(#clip330)" d="M1271.81 28.9478 L1271.81 35.9153 Q1268.65 34.1734 1265.45 33.3227 Q1262.29 32.4315 1259.05 32.4315 Q1251.8 32.4315 1247.79 37.0496 Q1243.78 41.6271 1243.78 49.9314 Q1243.78 58.2358 1247.79 62.8538 Q1251.8 67.4314 1259.05 67.4314 Q1262.29 67.4314 1265.45 66.5807 Q1268.65 65.6895 1271.81 63.9476 L1271.81 70.8341 Q1268.69 72.2924 1265.33 73.0216 Q1262.01 73.7508 1258.24 73.7508 Q1247.99 73.7508 1241.96 67.3098 Q1235.92 60.8689 1235.92 49.9314 Q1235.92 38.832 1242 32.472 Q1248.11 26.1121 1258.73 26.1121 Q1262.17 26.1121 1265.45 26.8413 Q1268.73 27.5299 1271.81 28.9478 Z" fill="#000000" fill-rule="nonzero" fill-opacity="1" /><path clip-path="url(#clip330)" d="M1349.95 48.0275 L1349.95 51.6733 L1315.68 51.6733 Q1316.17 59.3701 1320.3 63.421 Q1324.47 67.4314 1331.89 67.4314 Q1336.18 67.4314 1340.19 66.3781 Q1344.24 65.3249 1348.21 63.2184 L1348.21 70.267 Q1344.2 71.9684 1339.99 72.8596 Q1335.78 73.7508 1331.44 73.7508 Q1320.59 73.7508 1314.23 67.4314 Q1307.91 61.1119 1307.91 50.3365 Q1307.91 39.1965 1313.9 32.6746 Q1319.94 26.1121 1330.15 26.1121 Q1339.3 26.1121 1344.61 32.0264 Q1349.95 37.9003 1349.95 48.0275 M1342.5 45.84 Q1342.42 39.7232 1339.06 36.0774 Q1335.74 32.4315 1330.23 32.4315 Q1323.99 32.4315 1320.22 35.9558 Q1316.49 39.4801 1315.93 45.8805 L1342.5 45.84 Z" fill="#000000" fill-rule="nonzero" fill-opacity="1" /><path clip-path="url(#clip330)" d="M1398.44 27.2059 L1382.04 49.2833 L1399.29 72.576 L1390.5 72.576 L1377.3 54.752 L1364.09 72.576 L1355.3 72.576 L1372.92 48.8377 L1356.8 27.2059 L1365.59 27.2059 L1377.62 43.369 L1389.65 27.2059 L1398.44 27.2059 Z" fill="#000000" fill-rule="nonzero" fill-opacity="1" /><path clip-path="url(#clip330)" d="M1430.45 49.7694 Q1421.41 49.7694 1417.93 51.8354 Q1414.44 53.9013 1414.44 58.8839 Q1414.44 62.8538 1417.04 65.2034 Q1419.67 67.5124 1424.17 67.5124 Q1430.36 67.5124 1434.09 63.1374 Q1437.86 58.7219 1437.86 51.4303 L1437.86 49.7694 L1430.45 49.7694 M1445.31 46.6907 L1445.31 72.576 L1437.86 72.576 L1437.86 65.6895 Q1435.31 69.8214 1431.5 71.8063 Q1427.69 73.7508 1422.18 73.7508 Q1415.21 73.7508 1411.08 69.8619 Q1406.99 65.9325 1406.99 59.3701 Q1406.99 51.7138 1412.1 47.825 Q1417.24 43.9361 1427.41 43.9361 L1437.86 43.9361 L1437.86 43.2069 Q1437.86 38.0623 1434.46 35.2672 Q1431.09 32.4315 1424.98 32.4315 Q1421.09 32.4315 1417.4 33.3632 Q1413.72 34.295 1410.31 36.1584 L1410.31 29.2718 Q1414.4 27.692 1418.25 26.9223 Q1422.1 26.1121 1425.75 26.1121 Q1435.59 26.1121 1440.45 31.2163 Q1445.31 36.3204 1445.31 46.6907 Z" fill="#000000" fill-rule="nonzero" fill-opacity="1" /><path clip-path="url(#clip330)" d="M1495.99 35.9153 Q1498.78 30.8922 1502.67 28.5022 Q1506.56 26.1121 1511.83 26.1121 Q1518.92 26.1121 1522.77 31.0947 Q1526.61 36.0368 1526.61 45.1919 L1526.61 72.576 L1519.12 72.576 L1519.12 45.4349 Q1519.12 38.913 1516.81 35.7533 Q1514.5 32.5936 1509.76 32.5936 Q1503.97 32.5936 1500.61 36.4419 Q1497.25 40.2903 1497.25 46.9338 L1497.25 72.576 L1489.75 72.576 L1489.75 45.4349 Q1489.75 38.8725 1487.44 35.7533 Q1485.13 32.5936 1480.31 32.5936 Q1474.6 32.5936 1471.24 36.4824 Q1467.88 40.3308 1467.88 46.9338 L1467.88 72.576 L1460.38 72.576 L1460.38 27.2059 L1467.88 27.2059 L1467.88 34.2544 Q1470.43 30.082 1473.99 28.0971 Q1477.56 26.1121 1482.46 26.1121 Q1487.4 26.1121 1490.84 28.6237 Q1494.33 31.1352 1495.99 35.9153 Z" fill="#000000" fill-rule="nonzero" fill-opacity="1" /><path clip-path="url(#clip330)" d="M1548.69 65.7705 L1548.69 89.8329 L1541.2 89.8329 L1541.2 27.2059 L1548.69 27.2059 L1548.69 34.0924 Q1551.04 30.0415 1554.61 28.0971 Q1558.21 26.1121 1563.19 26.1121 Q1571.46 26.1121 1576.6 32.6746 Q1581.79 39.2371 1581.79 49.9314 Q1581.79 60.6258 1576.6 67.1883 Q1571.46 73.7508 1563.19 73.7508 Q1558.21 73.7508 1554.61 71.8063 Q1551.04 69.8214 1548.69 65.7705 M1574.05 49.9314 Q1574.05 41.7081 1570.65 37.0496 Q1567.29 32.3505 1561.37 32.3505 Q1555.46 32.3505 1552.05 37.0496 Q1548.69 41.7081 1548.69 49.9314 Q1548.69 58.1548 1552.05 62.8538 Q1555.46 67.5124 1561.37 67.5124 Q1567.29 67.5124 1570.65 62.8538 Q1574.05 58.1548 1574.05 49.9314 Z" fill="#000000" fill-rule="nonzero" fill-opacity="1" /><path clip-path="url(#clip330)" d="M1594.14 9.54393 L1601.6 9.54393 L1601.6 72.576 L1594.14 72.576 L1594.14 9.54393 Z" fill="#000000" fill-rule="nonzero" fill-opacity="1" /><path clip-path="url(#clip330)" d="M1656 48.0275 L1656 51.6733 L1621.73 51.6733 Q1622.22 59.3701 1626.35 63.421 Q1630.52 67.4314 1637.93 67.4314 Q1642.23 67.4314 1646.24 66.3781 Q1650.29 65.3249 1654.26 63.2184 L1654.26 70.267 Q1650.25 71.9684 1646.03 72.8596 Q1641.82 73.7508 1637.49 73.7508 Q1626.63 73.7508 1620.27 67.4314 Q1613.95 61.1119 1613.95 50.3365 Q1613.95 39.1965 1619.95 32.6746 Q1625.98 26.1121 1636.19 26.1121 Q1645.35 26.1121 1650.65 32.0264 Q1656 37.9003 1656 48.0275 M1648.55 45.84 Q1648.47 39.7232 1645.1 36.0774 Q1641.78 32.4315 1636.27 32.4315 Q1630.03 32.4315 1626.27 35.9558 Q1622.54 39.4801 1621.97 45.8805 L1648.55 45.84 Z" fill="#000000" fill-rule="nonzero" fill-opacity="1" /><polyline clip-path="url(#clip331)" style="stroke:#0000ff; stroke-linecap:round; stroke-linejoin:round; stroke-width:8; stroke-opacity:1; fill:none" points="218.439,1366.54 225.346,1371.11 232.253,1377 239.16,1386.4 246.067,1352.42 252.975,1321.22 259.882,1328.1 266.789,1298.01 273.696,1273.93 280.603,1246.2 287.51,1227.47 294.418,1213.53 301.325,1225.37 308.232,1211.46 315.139,1174.22 322.046,1160.45 328.954,1141.52 335.861,1120.78 342.768,1086.26 349.675,1084.26 356.582,1042.7 363.489,1012.25 370.397,1006.42 377.304,989.115 384.211,958.875 391.118,955.014 398.025,927.934 404.932,933.973 411.84,932.433 418.747,906.118 425.654,883.112 432.561,881.393 439.468,857.128 446.376,848.116 453.283,842.456 460.19,831.227 467.097,817.4 474.004,790.168 480.911,766.75 487.819,769.48 494.726,763.999 501.633,767.386 508.54,746.701 515.447,710.019 522.354,699.716 529.262,650.351 536.169,646.341 543.076,632.666 549.983,623.975 556.89,618.115 563.798,614.514 570.705,610.789 577.612,578.215 584.519,581.787 591.426,556.009 598.333,514.611 605.241,514.338 612.148,511.786 619.055,515.752 625.962,504.799 632.869,514.747 639.776,505.497 646.684,498.726 653.591,471.339 660.498,437.777 667.405,440.224 674.312,416.81 681.219,394.225 688.127,391.808 695.034,377.274 701.941,347.728 708.848,342.021 715.755,331.088 722.663,314.602 729.57,298.735 736.477,303.624 743.384,297.062 750.291,280.373 757.198,254.579 764.106,242.537 771.013,230.512 777.92,215.403 784.827,205.979 791.734,200.159 798.641,160.256 "/>
<polyline clip-path="url(#clip331)" style="stroke:#0000ff; stroke-linecap:round; stroke-linejoin:round; stroke-width:8; stroke-opacity:1; fill:none" points="798.641,942.309 805.549,918.18 812.456,893.223 819.363,873.66 826.27,850.42 833.177,863.22 840.085,866.918 846.992,854.07 853.899,828.778 860.806,794.009 867.713,771.648 874.62,738.308 881.528,734.79 888.435,701.059 895.342,680.59 902.249,662.206 909.156,649.199 916.063,634.224 922.971,619.406 929.878,631.991 936.785,612.521 943.692,576.032 950.599,526.9 957.506,521.632 964.414,492.07 971.321,508.759 978.228,504.926 985.135,499.354 992.042,496.882 998.95,508.239 1005.86,488.463 1012.76,459.732 1019.67,482.122 1026.58,480.815 1033.49,458.658 1040.39,467.807 1047.3,473.965 1054.21,458.843 1061.11,444.335 1068.02,424.514 1074.93,445.418 1081.84,434.204 1088.74,395.42 1095.65,351.207 1102.56,338.777 1109.46,345.101 1116.37,332.722 1123.28,319.074 1130.19,288.242 1137.09,277.6 1144,272.86 1150.91,256.994 1157.81,246.967 1164.72,263.997 1171.63,227.305 1178.54,206.941 1185.44,215.552 1192.35,217.422 1199.26,220.225 1206.16,229.755 1213.07,205.779 1219.98,225.815 1226.89,214.201 1233.79,187.036 "/>
<polyline clip-path="url(#clip331)" style="stroke:#0000ff; stroke-linecap:round; stroke-linejoin:round; stroke-width:8; stroke-opacity:1; fill:none" points="1233.79,969.089 1240.7,974.664 1247.61,956.079 1254.52,941.642 1261.42,936.289 1268.33,921.781 1275.24,909.711 1282.14,881.18 1289.05,855.939 1295.96,849.76 1302.87,844.767 1309.77,802.25 1316.68,782.374 1323.59,776.69 1330.49,742.79 1337.4,738.206 1344.31,722.197 1351.22,714.281 1358.12,691.864 1365.03,703.155 1371.94,681.916 1378.84,669.658 1385.75,652.698 1392.66,630.295 1399.57,621.185 1406.47,586.44 1413.38,600.27 1420.29,553.418 1427.19,539.331 1434.1,543.291 1441.01,526.302 1447.92,514.783 1454.82,484.551 1461.73,474.638 1468.64,464.895 1475.54,461.346 1482.45,427.141 1489.36,394.7 1496.27,404.898 1503.17,399.523 1510.08,421.769 1516.99,444.987 1523.89,426.771 1530.8,433.691 1537.71,411.955 1544.62,404.279 1551.52,392.66 1558.43,385.345 1565.34,364.807 1572.25,377.128 1579.15,372.025 1586.06,353.721 1592.97,332.698 1599.87,309.297 1606.78,279.133 1613.69,274.271 1620.6,249.553 1627.5,235.954 1634.41,203.803 1641.32,191.785 "/>
<polyline clip-path="url(#clip331)" style="stroke:#0000ff; stroke-linecap:round; stroke-linejoin:round; stroke-width:8; stroke-opacity:1; fill:none" points="1641.32,973.838 1648.22,944.221 1655.13,927.874 1662.04,943.582 1668.95,941.528 1675.85,903.623 1682.76,901.903 1689.67,874.291 1696.57,871.268 1703.48,869.829 1710.39,843.875 1717.3,847.788 1724.2,819.112 1731.11,810.68 1738.02,802.899 1744.92,772.093 1751.83,751.704 1758.74,747.263 1765.65,716.531 1772.55,698.016 1779.46,678.374 1786.37,654.511 1793.27,637.346 1800.18,623.711 1807.09,629.146 1814,645.476 1820.9,641.068 1827.81,615.493 1834.72,601.895 1841.62,620.544 1848.53,624.793 1855.44,605.479 1862.35,598.3 1869.25,588.157 1876.16,563.442 1883.07,535.146 1889.98,551.646 1896.88,544.811 1903.79,547.806 1910.7,532.187 1917.6,524.932 1924.51,487.609 1931.42,464.111 1938.33,450.404 1945.23,463 1952.14,475.214 1959.05,465.051 1965.95,458.379 1972.86,470.68 1979.77,469.763 1986.68,474.06 1993.58,458.121 2000.49,425.31 2007.4,401.988 2014.3,399.402 2021.21,390.458 2028.12,369.763 2035.03,381.882 2041.93,345.984 2048.84,330.501 2055.75,344.429 2062.65,351.685 2069.56,353.027 2076.47,341.204 2083.38,325.534 2090.28,322.707 2097.19,296.887 2104.1,296.405 2111,309.99 2117.91,308.75 2124.82,319.954 2131.73,318.427 2138.63,323.568 2145.54,304.495 2152.45,306.791 2159.35,293.901 2166.26,283.661 2173.17,262.936 2180.08,267.091 2186.98,250.587 2193.89,234.901 2200.8,245.744 2207.71,229.236 2214.61,199.42 2221.52,191.832 "/>
<polyline clip-path="url(#clip331)" style="stroke:#0000ff; stroke-linecap:round; stroke-linejoin:round; stroke-width:8; stroke-opacity:1; fill:none" points="2221.52,973.885 2228.43,964.171 2235.33,955.147 2242.24,960.669 2249.15,938.187 2256.06,919.184 2262.96,873.956 2269.87,846.07 2276.78,827.474 2283.68,792.261 2290.59,787.876 2290.59,787.876 "/>
</svg>
