<?xml version="1.0" encoding="utf-8"?>
<svg xmlns="http://www.w3.org/2000/svg" xmlns:xlink="http://www.w3.org/1999/xlink" width="600" height="400" viewBox="0 0 2400 1600">
<defs>
  <clipPath id="clip250">
    <rect x="0" y="0" width="2400" height="1600"/>
  </clipPath>
</defs>
<path clip-path="url(#clip250)" d="M0 1600 L2400 1600 L2400 0 L0 0  Z" fill="#ffffff" fill-rule="evenodd" fill-opacity="1"/>
<defs>
  <clipPath id="clip251">
    <rect x="147" y="123" width="2206" height="1301"/>
  </clipPath>
</defs>
<path clip-path="url(#clip250)" d="M147.709 1423.18 L2352.76 1423.18 L2352.76 123.472 L147.709 123.472  Z" fill="#ffffff" fill-rule="evenodd" fill-opacity="1"/>
<polyline clip-path="url(#clip251)" style="stroke:#000000; stroke-linecap:round; stroke-linejoin:round; stroke-width:2; stroke-opacity:0.1; fill:none" points="210.116,1423.18 210.116,123.472 "/>
<polyline clip-path="url(#clip251)" style="stroke:#000000; stroke-linecap:round; stroke-linejoin:round; stroke-width:2; stroke-opacity:0.1; fill:none" points="903.527,1423.18 903.527,123.472 "/>
<polyline clip-path="url(#clip251)" style="stroke:#000000; stroke-linecap:round; stroke-linejoin:round; stroke-width:2; stroke-opacity:0.1; fill:none" points="1596.94,1423.18 1596.94,123.472 "/>
<polyline clip-path="url(#clip251)" style="stroke:#000000; stroke-linecap:round; stroke-linejoin:round; stroke-width:2; stroke-opacity:0.1; fill:none" points="2290.35,1423.18 2290.35,123.472 "/>
<polyline clip-path="url(#clip251)" style="stroke:#000000; stroke-linecap:round; stroke-linejoin:round; stroke-width:2; stroke-opacity:0.1; fill:none" points="147.709,1117.68 2352.76,1117.68 "/>
<polyline clip-path="url(#clip251)" style="stroke:#000000; stroke-linecap:round; stroke-linejoin:round; stroke-width:2; stroke-opacity:0.1; fill:none" points="147.709,798.539 2352.76,798.539 "/>
<polyline clip-path="url(#clip251)" style="stroke:#000000; stroke-linecap:round; stroke-linejoin:round; stroke-width:2; stroke-opacity:0.1; fill:none" points="147.709,479.397 2352.76,479.397 "/>
<polyline clip-path="url(#clip251)" style="stroke:#000000; stroke-linecap:round; stroke-linejoin:round; stroke-width:2; stroke-opacity:0.1; fill:none" points="147.709,160.256 2352.76,160.256 "/>
<polyline clip-path="url(#clip250)" style="stroke:#000000; stroke-linecap:round; stroke-linejoin:round; stroke-width:4; stroke-opacity:1; fill:none" points="147.709,1423.18 2352.76,1423.18 "/>
<polyline clip-path="url(#clip250)" style="stroke:#000000; stroke-linecap:round; stroke-linejoin:round; stroke-width:4; stroke-opacity:1; fill:none" points="210.116,1423.18 210.116,1404.28 "/>
<polyline clip-path="url(#clip250)" style="stroke:#000000; stroke-linecap:round; stroke-linejoin:round; stroke-width:4; stroke-opacity:1; fill:none" points="903.527,1423.18 903.527,1404.28 "/>
<polyline clip-path="url(#clip250)" style="stroke:#000000; stroke-linecap:round; stroke-linejoin:round; stroke-width:4; stroke-opacity:1; fill:none" points="1596.94,1423.18 1596.94,1404.28 "/>
<polyline clip-path="url(#clip250)" style="stroke:#000000; stroke-linecap:round; stroke-linejoin:round; stroke-width:4; stroke-opacity:1; fill:none" points="2290.35,1423.18 2290.35,1404.28 "/>
<path clip-path="url(#clip250)" d="M210.116 1454.1 Q206.505 1454.1 204.677 1457.66 Q202.871 1461.2 202.871 1468.33 Q202.871 1475.44 204.677 1479.01 Q206.505 1482.55 210.116 1482.55 Q213.751 1482.55 215.556 1479.01 Q217.385 1475.44 217.385 1468.33 Q217.385 1461.2 215.556 1457.66 Q213.751 1454.1 210.116 1454.1 M210.116 1450.39 Q215.927 1450.39 218.982 1455 Q222.061 1459.58 222.061 1468.33 Q222.061 1477.06 218.982 1481.67 Q215.927 1486.25 210.116 1486.25 Q204.306 1486.25 201.228 1481.67 Q198.172 1477.06 198.172 1468.33 Q198.172 1459.58 201.228 1455 Q204.306 1450.39 210.116 1450.39 Z" fill="#000000" fill-rule="nonzero" fill-opacity="1" /><path clip-path="url(#clip250)" d="M893.805 1451.02 L912.161 1451.02 L912.161 1454.96 L898.087 1454.96 L898.087 1463.43 Q899.106 1463.08 900.124 1462.92 Q901.143 1462.73 902.161 1462.73 Q907.948 1462.73 911.328 1465.9 Q914.708 1469.08 914.708 1474.49 Q914.708 1480.07 911.236 1483.17 Q907.763 1486.25 901.444 1486.25 Q899.268 1486.25 896.999 1485.88 Q894.754 1485.51 892.347 1484.77 L892.347 1480.07 Q894.43 1481.2 896.652 1481.76 Q898.874 1482.32 901.351 1482.32 Q905.356 1482.32 907.694 1480.21 Q910.032 1478.1 910.032 1474.49 Q910.032 1470.88 907.694 1468.77 Q905.356 1466.67 901.351 1466.67 Q899.476 1466.67 897.601 1467.08 Q895.749 1467.5 893.805 1468.38 L893.805 1451.02 Z" fill="#000000" fill-rule="nonzero" fill-opacity="1" /><path clip-path="url(#clip250)" d="M1571.63 1481.64 L1579.26 1481.64 L1579.26 1455.28 L1570.95 1456.95 L1570.95 1452.69 L1579.22 1451.02 L1583.89 1451.02 L1583.89 1481.64 L1591.53 1481.64 L1591.53 1485.58 L1571.63 1485.58 L1571.63 1481.64 Z" fill="#000000" fill-rule="nonzero" fill-opacity="1" /><path clip-path="url(#clip250)" d="M1610.98 1454.1 Q1607.37 1454.1 1605.54 1457.66 Q1603.73 1461.2 1603.73 1468.33 Q1603.73 1475.44 1605.54 1479.01 Q1607.37 1482.55 1610.98 1482.55 Q1614.61 1482.55 1616.42 1479.01 Q1618.25 1475.44 1618.25 1468.33 Q1618.25 1461.2 1616.42 1457.66 Q1614.61 1454.1 1610.98 1454.1 M1610.98 1450.39 Q1616.79 1450.39 1619.84 1455 Q1622.92 1459.58 1622.92 1468.33 Q1622.92 1477.06 1619.84 1481.67 Q1616.79 1486.25 1610.98 1486.25 Q1605.17 1486.25 1602.09 1481.67 Q1599.03 1477.06 1599.03 1468.33 Q1599.03 1459.58 1602.09 1455 Q1605.17 1450.39 1610.98 1450.39 Z" fill="#000000" fill-rule="nonzero" fill-opacity="1" /><path clip-path="url(#clip250)" d="M2265.53 1481.64 L2273.17 1481.64 L2273.17 1455.28 L2264.86 1456.95 L2264.86 1452.69 L2273.13 1451.02 L2277.8 1451.02 L2277.8 1481.64 L2285.44 1481.64 L2285.44 1485.58 L2265.53 1485.58 L2265.53 1481.64 Z" fill="#000000" fill-rule="nonzero" fill-opacity="1" /><path clip-path="url(#clip250)" d="M2294.93 1451.02 L2313.29 1451.02 L2313.29 1454.96 L2299.21 1454.96 L2299.21 1463.43 Q2300.23 1463.08 2301.25 1462.92 Q2302.27 1462.73 2303.29 1462.73 Q2309.08 1462.73 2312.46 1465.9 Q2315.83 1469.08 2315.83 1474.49 Q2315.83 1480.07 2312.36 1483.17 Q2308.89 1486.25 2302.57 1486.25 Q2300.4 1486.25 2298.13 1485.88 Q2295.88 1485.51 2293.47 1484.77 L2293.47 1480.07 Q2295.56 1481.2 2297.78 1481.76 Q2300 1482.32 2302.48 1482.32 Q2306.48 1482.32 2308.82 1480.21 Q2311.16 1478.1 2311.16 1474.49 Q2311.16 1470.88 2308.82 1468.77 Q2306.48 1466.67 2302.48 1466.67 Q2300.6 1466.67 2298.73 1467.08 Q2296.88 1467.5 2294.93 1468.38 L2294.93 1451.02 Z" fill="#000000" fill-rule="nonzero" fill-opacity="1" /><path clip-path="url(#clip250)" d="M1172.11 1520.52 L1212.31 1520.52 L1212.31 1525.93 L1195.44 1525.93 L1195.44 1568.04 L1188.98 1568.04 L1188.98 1525.93 L1172.11 1525.93 L1172.11 1520.52 Z" fill="#000000" fill-rule="nonzero" fill-opacity="1" /><path clip-path="url(#clip250)" d="M1216.26 1532.4 L1222.11 1532.4 L1222.11 1568.04 L1216.26 1568.04 L1216.26 1532.4 M1216.26 1518.52 L1222.11 1518.52 L1222.11 1525.93 L1216.26 1525.93 L1216.26 1518.52 Z" fill="#000000" fill-rule="nonzero" fill-opacity="1" /><path clip-path="url(#clip250)" d="M1262.12 1539.24 Q1264.32 1535.29 1267.37 1533.41 Q1270.43 1531.54 1274.57 1531.54 Q1280.14 1531.54 1283.16 1535.45 Q1286.18 1539.33 1286.18 1546.53 L1286.18 1568.04 L1280.29 1568.04 L1280.29 1546.72 Q1280.29 1541.59 1278.48 1539.11 Q1276.67 1536.63 1272.94 1536.63 Q1268.39 1536.63 1265.75 1539.65 Q1263.11 1542.68 1263.11 1547.9 L1263.11 1568.04 L1257.22 1568.04 L1257.22 1546.72 Q1257.22 1541.56 1255.4 1539.11 Q1253.59 1536.63 1249.8 1536.63 Q1245.32 1536.63 1242.67 1539.68 Q1240.03 1542.71 1240.03 1547.9 L1240.03 1568.04 L1234.14 1568.04 L1234.14 1532.4 L1240.03 1532.4 L1240.03 1537.93 Q1242.04 1534.66 1244.84 1533.1 Q1247.64 1531.54 1251.49 1531.54 Q1255.37 1531.54 1258.08 1533.51 Q1260.82 1535.48 1262.12 1539.24 Z" fill="#000000" fill-rule="nonzero" fill-opacity="1" /><path clip-path="url(#clip250)" d="M1328.36 1548.76 L1328.36 1551.62 L1301.43 1551.62 Q1301.81 1557.67 1305.06 1560.85 Q1308.34 1564 1314.16 1564 Q1317.53 1564 1320.69 1563.17 Q1323.87 1562.35 1326.99 1560.69 L1326.99 1566.23 Q1323.84 1567.57 1320.53 1568.27 Q1317.22 1568.97 1313.81 1568.97 Q1305.28 1568.97 1300.28 1564 Q1295.32 1559.04 1295.32 1550.57 Q1295.32 1541.82 1300.03 1536.69 Q1304.77 1531.54 1312.79 1531.54 Q1319.98 1531.54 1324.15 1536.18 Q1328.36 1540.8 1328.36 1548.76 M1322.5 1547.04 Q1322.44 1542.23 1319.79 1539.37 Q1317.18 1536.5 1312.86 1536.5 Q1307.95 1536.5 1304.99 1539.27 Q1302.07 1542.04 1301.62 1547.07 L1322.5 1547.04 Z" fill="#000000" fill-rule="nonzero" fill-opacity="1" /><polyline clip-path="url(#clip250)" style="stroke:#000000; stroke-linecap:round; stroke-linejoin:round; stroke-width:4; stroke-opacity:1; fill:none" points="147.709,1423.18 147.709,123.472 "/>
<polyline clip-path="url(#clip250)" style="stroke:#000000; stroke-linecap:round; stroke-linejoin:round; stroke-width:4; stroke-opacity:1; fill:none" points="147.709,1117.68 166.607,1117.68 "/>
<polyline clip-path="url(#clip250)" style="stroke:#000000; stroke-linecap:round; stroke-linejoin:round; stroke-width:4; stroke-opacity:1; fill:none" points="147.709,798.539 166.607,798.539 "/>
<polyline clip-path="url(#clip250)" style="stroke:#000000; stroke-linecap:round; stroke-linejoin:round; stroke-width:4; stroke-opacity:1; fill:none" points="147.709,479.397 166.607,479.397 "/>
<polyline clip-path="url(#clip250)" style="stroke:#000000; stroke-linecap:round; stroke-linejoin:round; stroke-width:4; stroke-opacity:1; fill:none" points="147.709,160.256 166.607,160.256 "/>
<path clip-path="url(#clip250)" d="M50.9921 1118.13 L80.6679 1118.13 L80.6679 1122.07 L50.9921 1122.07 L50.9921 1118.13 Z" fill="#000000" fill-rule="nonzero" fill-opacity="1" /><path clip-path="url(#clip250)" d="M90.8067 1100.4 L109.163 1100.4 L109.163 1104.33 L95.0891 1104.33 L95.0891 1112.81 Q96.1076 1112.46 97.1261 1112.3 Q98.1447 1112.11 99.1632 1112.11 Q104.95 1112.11 108.33 1115.28 Q111.709 1118.46 111.709 1123.87 Q111.709 1129.45 108.237 1132.55 Q104.765 1135.63 98.4456 1135.63 Q96.2697 1135.63 94.0012 1135.26 Q91.7558 1134.89 89.3484 1134.15 L89.3484 1129.45 Q91.4317 1130.58 93.6539 1131.14 Q95.8761 1131.7 98.353 1131.7 Q102.358 1131.7 104.696 1129.59 Q107.033 1127.48 107.033 1123.87 Q107.033 1120.26 104.696 1118.15 Q102.358 1116.05 98.353 1116.05 Q96.478 1116.05 94.603 1116.46 Q92.7512 1116.88 90.8067 1117.76 L90.8067 1100.4 Z" fill="#000000" fill-rule="nonzero" fill-opacity="1" /><path clip-path="url(#clip250)" d="M99.765 784.337 Q96.1539 784.337 94.3252 787.902 Q92.5197 791.444 92.5197 798.573 Q92.5197 805.68 94.3252 809.245 Q96.1539 812.786 99.765 812.786 Q103.399 812.786 105.205 809.245 Q107.033 805.68 107.033 798.573 Q107.033 791.444 105.205 787.902 Q103.399 784.337 99.765 784.337 M99.765 780.634 Q105.575 780.634 108.631 785.24 Q111.709 789.823 111.709 798.573 Q111.709 807.3 108.631 811.907 Q105.575 816.49 99.765 816.49 Q93.9549 816.49 90.8762 811.907 Q87.8206 807.3 87.8206 798.573 Q87.8206 789.823 90.8762 785.24 Q93.9549 780.634 99.765 780.634 Z" fill="#000000" fill-rule="nonzero" fill-opacity="1" /><path clip-path="url(#clip250)" d="M90.8067 462.117 L109.163 462.117 L109.163 466.053 L95.0891 466.053 L95.0891 474.525 Q96.1076 474.178 97.1261 474.016 Q98.1447 473.83 99.1632 473.83 Q104.95 473.83 108.33 477.002 Q111.709 480.173 111.709 485.59 Q111.709 491.168 108.237 494.27 Q104.765 497.349 98.4456 497.349 Q96.2697 497.349 94.0012 496.978 Q91.7558 496.608 89.3484 495.867 L89.3484 491.168 Q91.4317 492.302 93.6539 492.858 Q95.8761 493.414 98.353 493.414 Q102.358 493.414 104.696 491.307 Q107.033 489.201 107.033 485.59 Q107.033 481.978 104.696 479.872 Q102.358 477.766 98.353 477.766 Q96.478 477.766 94.603 478.182 Q92.7512 478.599 90.8067 479.478 L90.8067 462.117 Z" fill="#000000" fill-rule="nonzero" fill-opacity="1" /><path clip-path="url(#clip250)" d="M60.4134 173.601 L68.0522 173.601 L68.0522 147.236 L59.7421 148.902 L59.7421 144.643 L68.0059 142.976 L72.6818 142.976 L72.6818 173.601 L80.3207 173.601 L80.3207 177.536 L60.4134 177.536 L60.4134 173.601 Z" fill="#000000" fill-rule="nonzero" fill-opacity="1" /><path clip-path="url(#clip250)" d="M99.765 146.055 Q96.1539 146.055 94.3252 149.62 Q92.5197 153.161 92.5197 160.291 Q92.5197 167.397 94.3252 170.962 Q96.1539 174.504 99.765 174.504 Q103.399 174.504 105.205 170.962 Q107.033 167.397 107.033 160.291 Q107.033 153.161 105.205 149.62 Q103.399 146.055 99.765 146.055 M99.765 142.351 Q105.575 142.351 108.631 146.958 Q111.709 151.541 111.709 160.291 Q111.709 169.018 108.631 173.624 Q105.575 178.208 99.765 178.208 Q93.9549 178.208 90.8762 173.624 Q87.8206 169.018 87.8206 160.291 Q87.8206 151.541 90.8762 146.958 Q93.9549 142.351 99.765 142.351 Z" fill="#000000" fill-rule="nonzero" fill-opacity="1" /><path clip-path="url(#clip250)" d="M985.02 43.6931 L985.02 65.8515 L998.145 65.8515 Q1004.75 65.8515 1007.91 63.1374 Q1011.11 60.3828 1011.11 54.752 Q1011.11 49.0808 1007.91 46.4072 Q1004.75 43.6931 998.145 43.6931 L985.02 43.6931 M985.02 18.8205 L985.02 37.0496 L997.132 37.0496 Q1003.13 37.0496 1006.04 34.8216 Q1009 32.5531 1009 27.935 Q1009 23.3575 1006.04 21.089 Q1003.13 18.8205 997.132 18.8205 L985.02 18.8205 M976.837 12.096 L997.74 12.096 Q1007.1 12.096 1012.16 15.9849 Q1017.22 19.8737 1017.22 27.0438 Q1017.22 32.5936 1014.63 35.8748 Q1012.04 39.156 1007.02 39.9662 Q1013.05 41.2625 1016.37 45.3944 Q1019.74 49.4858 1019.74 55.6432 Q1019.74 63.745 1014.23 68.1605 Q1008.72 72.576 998.55 72.576 L976.837 72.576 L976.837 12.096 Z" fill="#000000" fill-rule="nonzero" fill-opacity="1" /><path clip-path="url(#clip250)" d="M1051.01 32.4315 Q1045.01 32.4315 1041.53 37.1306 Q1038.05 41.7891 1038.05 49.9314 Q1038.05 58.0738 1041.49 62.7728 Q1044.97 67.4314 1051.01 67.4314 Q1056.96 67.4314 1060.45 62.7323 Q1063.93 58.0333 1063.93 49.9314 Q1063.93 41.8701 1060.45 37.1711 Q1056.96 32.4315 1051.01 32.4315 M1051.01 26.1121 Q1060.73 26.1121 1066.28 32.4315 Q1071.83 38.7509 1071.83 49.9314 Q1071.83 61.0714 1066.28 67.4314 Q1060.73 73.7508 1051.01 73.7508 Q1041.25 73.7508 1035.7 67.4314 Q1030.19 61.0714 1030.19 49.9314 Q1030.19 38.7509 1035.7 32.4315 Q1041.25 26.1121 1051.01 26.1121 Z" fill="#000000" fill-rule="nonzero" fill-opacity="1" /><path clip-path="url(#clip250)" d="M1083.42 54.671 L1083.42 27.2059 L1090.87 27.2059 L1090.87 54.3874 Q1090.87 60.8284 1093.38 64.0691 Q1095.89 67.2693 1100.92 67.2693 Q1106.95 67.2693 1110.44 63.421 Q1113.96 59.5726 1113.96 52.9291 L1113.96 27.2059 L1121.41 27.2059 L1121.41 72.576 L1113.96 72.576 L1113.96 65.6084 Q1111.25 69.7404 1107.64 71.7658 Q1104.08 73.7508 1099.34 73.7508 Q1091.52 73.7508 1087.47 68.8897 Q1083.42 64.0286 1083.42 54.671 M1102.17 26.1121 L1102.17 26.1121 Z" fill="#000000" fill-rule="nonzero" fill-opacity="1" /><path clip-path="url(#clip250)" d="M1174.48 45.1919 L1174.48 72.576 L1167.03 72.576 L1167.03 45.4349 Q1167.03 38.994 1164.52 35.7938 Q1162 32.5936 1156.98 32.5936 Q1150.94 32.5936 1147.46 36.4419 Q1143.98 40.2903 1143.98 46.9338 L1143.98 72.576 L1136.48 72.576 L1136.48 27.2059 L1143.98 27.2059 L1143.98 34.2544 Q1146.65 30.163 1150.26 28.1376 Q1153.9 26.1121 1158.64 26.1121 Q1166.46 26.1121 1170.47 30.9732 Q1174.48 35.7938 1174.48 45.1919 Z" fill="#000000" fill-rule="nonzero" fill-opacity="1" /><path clip-path="url(#clip250)" d="M1222 28.9478 L1222 35.9153 Q1218.84 34.1734 1215.64 33.3227 Q1212.48 32.4315 1209.24 32.4315 Q1201.99 32.4315 1197.98 37.0496 Q1193.97 41.6271 1193.97 49.9314 Q1193.97 58.2358 1197.98 62.8538 Q1201.99 67.4314 1209.24 67.4314 Q1212.48 67.4314 1215.64 66.5807 Q1218.84 65.6895 1222 63.9476 L1222 70.8341 Q1218.88 72.2924 1215.52 73.0216 Q1212.19 73.7508 1208.43 73.7508 Q1198.18 73.7508 1192.14 67.3098 Q1186.11 60.8689 1186.11 49.9314 Q1186.11 38.832 1192.18 32.472 Q1198.3 26.1121 1208.91 26.1121 Q1212.36 26.1121 1215.64 26.8413 Q1218.92 27.5299 1222 28.9478 Z" fill="#000000" fill-rule="nonzero" fill-opacity="1" /><path clip-path="url(#clip250)" d="M1234.96 27.2059 L1242.41 27.2059 L1242.41 72.576 L1234.96 72.576 L1234.96 27.2059 M1234.96 9.54393 L1242.41 9.54393 L1242.41 18.9825 L1234.96 18.9825 L1234.96 9.54393 Z" fill="#000000" fill-rule="nonzero" fill-opacity="1" /><path clip-path="url(#clip250)" d="M1295.72 45.1919 L1295.72 72.576 L1288.27 72.576 L1288.27 45.4349 Q1288.27 38.994 1285.76 35.7938 Q1283.25 32.5936 1278.22 32.5936 Q1272.19 32.5936 1268.7 36.4419 Q1265.22 40.2903 1265.22 46.9338 L1265.22 72.576 L1257.73 72.576 L1257.73 27.2059 L1265.22 27.2059 L1265.22 34.2544 Q1267.89 30.163 1271.5 28.1376 Q1275.15 26.1121 1279.89 26.1121 Q1287.7 26.1121 1291.71 30.9732 Q1295.72 35.7938 1295.72 45.1919 Z" fill="#000000" fill-rule="nonzero" fill-opacity="1" /><path clip-path="url(#clip250)" d="M1340.45 49.3643 Q1340.45 41.2625 1337.08 36.8065 Q1333.76 32.3505 1327.73 32.3505 Q1321.73 32.3505 1318.37 36.8065 Q1315.05 41.2625 1315.05 49.3643 Q1315.05 57.4256 1318.37 61.8816 Q1321.73 66.3376 1327.73 66.3376 Q1333.76 66.3376 1337.08 61.8816 Q1340.45 57.4256 1340.45 49.3643 M1347.9 66.9452 Q1347.9 78.5308 1342.76 84.1616 Q1337.61 89.8329 1327 89.8329 Q1323.07 89.8329 1319.58 89.2252 Q1316.1 88.6581 1312.82 87.4428 L1312.82 80.1917 Q1316.1 81.9741 1319.3 82.8248 Q1322.5 83.6755 1325.82 83.6755 Q1333.15 83.6755 1336.8 79.8271 Q1340.45 76.0193 1340.45 68.282 L1340.45 64.5957 Q1338.14 68.6061 1334.53 70.5911 Q1330.93 72.576 1325.9 72.576 Q1317.56 72.576 1312.45 66.2161 Q1307.35 59.8562 1307.35 49.3643 Q1307.35 38.832 1312.45 32.472 Q1317.56 26.1121 1325.9 26.1121 Q1330.93 26.1121 1334.53 28.0971 Q1338.14 30.082 1340.45 34.0924 L1340.45 27.2059 L1347.9 27.2059 L1347.9 66.9452 Z" fill="#000000" fill-rule="nonzero" fill-opacity="1" /><path clip-path="url(#clip250)" d="M1422.19 49.9314 Q1422.19 41.7081 1418.79 37.0496 Q1415.43 32.3505 1409.51 32.3505 Q1403.6 32.3505 1400.2 37.0496 Q1396.83 41.7081 1396.83 49.9314 Q1396.83 58.1548 1400.2 62.8538 Q1403.6 67.5124 1409.51 67.5124 Q1415.43 67.5124 1418.79 62.8538 Q1422.19 58.1548 1422.19 49.9314 M1396.83 34.0924 Q1399.18 30.0415 1402.75 28.0971 Q1406.35 26.1121 1411.34 26.1121 Q1419.6 26.1121 1424.75 32.6746 Q1429.93 39.2371 1429.93 49.9314 Q1429.93 60.6258 1424.75 67.1883 Q1419.6 73.7508 1411.34 73.7508 Q1406.35 73.7508 1402.75 71.8063 Q1399.18 69.8214 1396.83 65.7705 L1396.83 72.576 L1389.34 72.576 L1389.34 9.54393 L1396.83 9.54393 L1396.83 34.0924 Z" fill="#000000" fill-rule="nonzero" fill-opacity="1" /><path clip-path="url(#clip250)" d="M1462.91 49.7694 Q1453.87 49.7694 1450.39 51.8354 Q1446.9 53.9013 1446.9 58.8839 Q1446.9 62.8538 1449.5 65.2034 Q1452.13 67.5124 1456.63 67.5124 Q1462.82 67.5124 1466.55 63.1374 Q1470.32 58.7219 1470.32 51.4303 L1470.32 49.7694 L1462.91 49.7694 M1477.77 46.6907 L1477.77 72.576 L1470.32 72.576 L1470.32 65.6895 Q1467.77 69.8214 1463.96 71.8063 Q1460.15 73.7508 1454.64 73.7508 Q1447.67 73.7508 1443.54 69.8619 Q1439.45 65.9325 1439.45 59.3701 Q1439.45 51.7138 1444.55 47.825 Q1449.7 43.9361 1459.87 43.9361 L1470.32 43.9361 L1470.32 43.2069 Q1470.32 38.0623 1466.92 35.2672 Q1463.55 32.4315 1457.44 32.4315 Q1453.55 32.4315 1449.86 33.3632 Q1446.17 34.295 1442.77 36.1584 L1442.77 29.2718 Q1446.86 27.692 1450.71 26.9223 Q1454.56 26.1121 1458.21 26.1121 Q1468.05 26.1121 1472.91 31.2163 Q1477.77 36.3204 1477.77 46.6907 Z" fill="#000000" fill-rule="nonzero" fill-opacity="1" /><path clip-path="url(#clip250)" d="M1493.12 9.54393 L1500.58 9.54393 L1500.58 72.576 L1493.12 72.576 L1493.12 9.54393 Z" fill="#000000" fill-rule="nonzero" fill-opacity="1" /><path clip-path="url(#clip250)" d="M1516.17 9.54393 L1523.63 9.54393 L1523.63 72.576 L1516.17 72.576 L1516.17 9.54393 Z" fill="#000000" fill-rule="nonzero" fill-opacity="1" /><polyline clip-path="url(#clip251)" style="stroke:#0000ff; stroke-linecap:round; stroke-linejoin:round; stroke-width:8; stroke-opacity:1; fill:none" points="210.116,160.256 211.503,160.288 215.664,160.757 228.145,165.533 265.589,209.091 302.076,289.027 329.089,367.331 356.697,460.201 382.243,554.875 407.269,653.659 432.539,757.84 442.191,798.539 "/>
<polyline clip-path="url(#clip251)" style="stroke:#0000ff; stroke-linecap:round; stroke-linejoin:round; stroke-width:8; stroke-opacity:1; fill:none" points="442.191,798.539 461.636,741.574 481.421,700.121 503.05,671.475 526.534,658.419 539.257,658.894 550.71,663.813 582.392,698.851 613.081,760.104 628.115,798.539 "/>
<polyline clip-path="url(#clip251)" style="stroke:#0000ff; stroke-linecap:round; stroke-linejoin:round; stroke-width:8; stroke-opacity:1; fill:none" points="628.115,798.539 649.23,761.114 670.931,739.239 681.835,734.212 690.061,732.995 714.739,742.516 744.094,778.666 755.037,798.539 "/>
<polyline clip-path="url(#clip251)" style="stroke:#0000ff; stroke-linecap:round; stroke-linejoin:round; stroke-width:8; stroke-opacity:1; fill:none" points="755.037,798.539 775.013,774.21 797.395,762.982 806.112,763.049 814.525,765.456 839.764,786.227 848.875,798.539 "/>
<polyline clip-path="url(#clip251)" style="stroke:#0000ff; stroke-linecap:round; stroke-linejoin:round; stroke-width:8; stroke-opacity:1; fill:none" points="848.875,798.539 870.551,780.763 885.116,777.556 900.306,781.566 920.689,798.539 "/>
<polyline clip-path="url(#clip251)" style="stroke:#0000ff; stroke-linecap:round; stroke-linejoin:round; stroke-width:8; stroke-opacity:1; fill:none" points="920.689,798.539 937.05,787.961 947.158,785.829 973.974,796.243 976.644,798.539 "/>
<polyline clip-path="url(#clip251)" style="stroke:#0000ff; stroke-linecap:round; stroke-linejoin:round; stroke-width:8; stroke-opacity:1; fill:none" points="976.644,798.539 991.323,791.511 1001.82,790.809 1012.22,793.648 1020.69,798.539 "/>
<polyline clip-path="url(#clip251)" style="stroke:#0000ff; stroke-linecap:round; stroke-linejoin:round; stroke-width:8; stroke-opacity:1; fill:none" points="1020.69,798.539 1035.5,793.697 1060.96,802.049 "/>
<polyline clip-path="url(#clip251)" style="stroke:#0000ff; stroke-linecap:round; stroke-linejoin:round; stroke-width:8; stroke-opacity:1; fill:none" points="1060.96,795.028 1073.88,790.151 1083.79,790.103 1092.88,792.863 1102.3,798.539 "/>
<polyline clip-path="url(#clip251)" style="stroke:#0000ff; stroke-linecap:round; stroke-linejoin:round; stroke-width:8; stroke-opacity:1; fill:none" points="1102.3,798.539 1117.58,793.181 1142.81,800.96 "/>
<polyline clip-path="url(#clip251)" style="stroke:#0000ff; stroke-linecap:round; stroke-linejoin:round; stroke-width:8; stroke-opacity:1; fill:none" points="1142.81,796.117 1154.64,791.656 1164.2,791.391 1174.19,794.286 1181.63,798.539 "/>
<polyline clip-path="url(#clip251)" style="stroke:#0000ff; stroke-linecap:round; stroke-linejoin:round; stroke-width:8; stroke-opacity:1; fill:none" points="1181.63,798.539 1196.18,793.98 1221.77,802.66 "/>
<polyline clip-path="url(#clip251)" style="stroke:#0000ff; stroke-linecap:round; stroke-linejoin:round; stroke-width:8; stroke-opacity:1; fill:none" points="1221.77,794.418 1235.33,789.3 1244.35,789.223 1253.2,791.718 1264.46,798.539 "/>
<polyline clip-path="url(#clip251)" style="stroke:#0000ff; stroke-linecap:round; stroke-linejoin:round; stroke-width:8; stroke-opacity:1; fill:none" points="1264.46,798.539 1279.87,792.767 1288.69,792.955 1297.07,795.474 1302.86,798.539 "/>
<polyline clip-path="url(#clip251)" style="stroke:#0000ff; stroke-linecap:round; stroke-linejoin:round; stroke-width:8; stroke-opacity:1; fill:none" points="1302.86,798.539 1316.85,794.781 1342.85,804.69 "/>
<polyline clip-path="url(#clip251)" style="stroke:#0000ff; stroke-linecap:round; stroke-linejoin:round; stroke-width:8; stroke-opacity:1; fill:none" points="1342.85,792.388 1357.69,786.54 1366.75,786.506 1375.49,789.002 1389.97,798.539 "/>
<polyline clip-path="url(#clip251)" style="stroke:#0000ff; stroke-linecap:round; stroke-linejoin:round; stroke-width:8; stroke-opacity:1; fill:none" points="1389.97,798.539 1403.44,791.968 1411.52,790.879 1435.75,800.309 "/>
<polyline clip-path="url(#clip251)" style="stroke:#0000ff; stroke-linecap:round; stroke-linejoin:round; stroke-width:8; stroke-opacity:1; fill:none" points="1435.75,796.769 1450.99,791.106 1459.83,791.298 1468.22,793.827 1476.48,798.539 "/>
<polyline clip-path="url(#clip251)" style="stroke:#0000ff; stroke-linecap:round; stroke-linejoin:round; stroke-width:8; stroke-opacity:1; fill:none" points="1476.48,798.539 1491.17,793.829 1516.69,802.337 "/>
<polyline clip-path="url(#clip251)" style="stroke:#0000ff; stroke-linecap:round; stroke-linejoin:round; stroke-width:8; stroke-opacity:1; fill:none" points="1516.69,794.74 1529.92,789.748 1538.92,789.618 1547.98,792.146 1558.68,798.539 "/>
<polyline clip-path="url(#clip251)" style="stroke:#0000ff; stroke-linecap:round; stroke-linejoin:round; stroke-width:8; stroke-opacity:1; fill:none" points="1558.68,798.539 1574.08,792.977 1583.7,793.433 1592.6,796.529 1596.25,798.539 "/>
<polyline clip-path="url(#clip251)" style="stroke:#0000ff; stroke-linecap:round; stroke-linejoin:round; stroke-width:8; stroke-opacity:1; fill:none" points="1596.25,798.539 1610.3,794.927 1636.39,805.223 "/>
<polyline clip-path="url(#clip251)" style="stroke:#0000ff; stroke-linecap:round; stroke-linejoin:round; stroke-width:8; stroke-opacity:1; fill:none" points="1636.39,791.855 1651.09,785.858 1660.88,785.781 1669.99,788.508 1684.7,798.539 "/>
<polyline clip-path="url(#clip251)" style="stroke:#0000ff; stroke-linecap:round; stroke-linejoin:round; stroke-width:8; stroke-opacity:1; fill:none" points="1684.7,798.539 1697.68,791.83 1705.95,790.439 1730.77,799.588 "/>
<polyline clip-path="url(#clip251)" style="stroke:#0000ff; stroke-linecap:round; stroke-linejoin:round; stroke-width:8; stroke-opacity:1; fill:none" points="1730.77,797.489 1745.99,791.958 1755.79,792.402 1764.7,795.511 1769.95,798.539 "/>
<polyline clip-path="url(#clip251)" style="stroke:#0000ff; stroke-linecap:round; stroke-linejoin:round; stroke-width:8; stroke-opacity:1; fill:none" points="1769.95,798.539 1784.2,794.333 1809.97,803.492 "/>
<polyline clip-path="url(#clip251)" style="stroke:#0000ff; stroke-linecap:round; stroke-linejoin:round; stroke-width:8; stroke-opacity:1; fill:none" points="1809.97,793.585 1824.36,788.137 1833.79,788.234 1842.45,790.87 1854.49,798.539 "/>
<polyline clip-path="url(#clip251)" style="stroke:#0000ff; stroke-linecap:round; stroke-linejoin:round; stroke-width:8; stroke-opacity:1; fill:none" points="1854.49,798.539 1869.35,792.33 1878.94,792.156 1888.35,794.89 1894.99,798.539 "/>
<polyline clip-path="url(#clip251)" style="stroke:#0000ff; stroke-linecap:round; stroke-linejoin:round; stroke-width:8; stroke-opacity:1; fill:none" points="1894.99,798.539 1909.2,794.393 1935,803.647 "/>
<polyline clip-path="url(#clip251)" style="stroke:#0000ff; stroke-linecap:round; stroke-linejoin:round; stroke-width:8; stroke-opacity:1; fill:none" points="1935,793.43 1949.51,787.923 1959,788.039 1967.67,790.703 1979.86,798.539 "/>
<polyline clip-path="url(#clip251)" style="stroke:#0000ff; stroke-linecap:round; stroke-linejoin:round; stroke-width:8; stroke-opacity:1; fill:none" points="1979.86,798.539 1994.56,792.267 2004.08,791.975 2014.32,794.947 2020.74,798.539 "/>
<polyline clip-path="url(#clip251)" style="stroke:#0000ff; stroke-linecap:round; stroke-linejoin:round; stroke-width:8; stroke-opacity:1; fill:none" points="2020.74,798.539 2035.01,794.321 2060.77,803.465 "/>
<polyline clip-path="url(#clip251)" style="stroke:#0000ff; stroke-linecap:round; stroke-linejoin:round; stroke-width:8; stroke-opacity:1; fill:none" points="2060.77,793.613 2075.14,788.174 2084.56,788.268 2093.22,790.899 2105.23,798.539 "/>
<polyline clip-path="url(#clip251)" style="stroke:#0000ff; stroke-linecap:round; stroke-linejoin:round; stroke-width:8; stroke-opacity:1; fill:none" points="2105.23,798.539 2120.12,792.342 2129.75,792.193 2139.06,794.913 2145.66,798.539 "/>
<polyline clip-path="url(#clip251)" style="stroke:#0000ff; stroke-linecap:round; stroke-linejoin:round; stroke-width:8; stroke-opacity:1; fill:none" points="2145.66,798.539 2159.87,794.406 2185.67,803.679 "/>
<polyline clip-path="url(#clip251)" style="stroke:#0000ff; stroke-linecap:round; stroke-linejoin:round; stroke-width:8; stroke-opacity:1; fill:none" points="2185.67,793.398 2200.2,787.879 2209.7,787.998 2218.37,790.665 2230.6,798.539 "/>
<polyline clip-path="url(#clip251)" style="stroke:#0000ff; stroke-linecap:round; stroke-linejoin:round; stroke-width:8; stroke-opacity:1; fill:none" points="2230.6,798.539 2245.27,792.254 2254.81,791.942 2265.26,794.994 2271.56,798.539 "/>
<polyline clip-path="url(#clip251)" style="stroke:#0000ff; stroke-linecap:round; stroke-linejoin:round; stroke-width:8; stroke-opacity:1; fill:none" points="2271.56,798.539 2281.6,794.866 2290.35,794.351 "/>
<polyline clip-path="url(#clip251)" style="stroke:#ffa500; stroke-linecap:round; stroke-linejoin:round; stroke-width:8; stroke-opacity:1; fill:none" points="210.116,798.539 211.503,804.8 215.664,823.572 228.145,879.492 265.589,1036.67 302.076,1162.81 329.089,1235.32 356.697,1292.02 382.243,1331.08 407.269,1359.34 432.539,1380.1 442.191,1386.4 "/>
<polyline clip-path="url(#clip251)" style="stroke:#ffa500; stroke-linecap:round; stroke-linejoin:round; stroke-width:8; stroke-opacity:1; fill:none" points="442.191,328.253 461.636,452.589 481.421,561.007 503.05,667.135 526.534,774.999 539.257,832.421 550.71,883.645 582.392,1017.73 613.081,1129.37 628.115,1175.87 "/>
<polyline clip-path="url(#clip251)" style="stroke:#ffa500; stroke-linecap:round; stroke-linejoin:round; stroke-width:8; stroke-opacity:1; fill:none" points="628.115,496.674 649.23,606.663 670.931,709.651 681.835,759.408 690.061,796.599 714.739,906.94 744.094,1029.39 755.037,1070.94 "/>
<polyline clip-path="url(#clip251)" style="stroke:#ffa500; stroke-linecap:round; stroke-linejoin:round; stroke-width:8; stroke-opacity:1; fill:none" points="755.037,580.615 775.013,677.419 797.395,779.92 806.112,819.278 814.525,857.102 839.764,967.053 848.875,1004.56 "/>
<polyline clip-path="url(#clip251)" style="stroke:#ffa500; stroke-linecap:round; stroke-linejoin:round; stroke-width:8; stroke-opacity:1; fill:none" points="848.875,633.718 870.551,734.957 885.116,800.935 900.306,869.222 920.689,958.028 "/>
<polyline clip-path="url(#clip251)" style="stroke:#ffa500; stroke-linecap:round; stroke-linejoin:round; stroke-width:8; stroke-opacity:1; fill:none" points="920.689,670.947 937.05,746.39 947.158,792.145 973.974,911.983 976.644,923.608 "/>
<polyline clip-path="url(#clip251)" style="stroke:#ffa500; stroke-linecap:round; stroke-linejoin:round; stroke-width:8; stroke-opacity:1; fill:none" points="976.644,698.483 991.323,765.551 1001.82,812.973 1012.22,859.744 1020.69,897.364 "/>
<polyline clip-path="url(#clip251)" style="stroke:#ffa500; stroke-linecap:round; stroke-linejoin:round; stroke-width:8; stroke-opacity:1; fill:none" points="1020.69,719.478 1035.5,786.762 1060.96,900.81 "/>
<polyline clip-path="url(#clip251)" style="stroke:#ffa500; stroke-linecap:round; stroke-linejoin:round; stroke-width:8; stroke-opacity:1; fill:none" points="1060.96,716.722 1073.88,775.473 1083.79,820.252 1092.88,861.056 1102.3,902.866 "/>
<polyline clip-path="url(#clip251)" style="stroke:#ffa500; stroke-linecap:round; stroke-linejoin:round; stroke-width:8; stroke-opacity:1; fill:none" points="1102.3,715.077 1117.58,784.533 1142.81,897.614 "/>
<polyline clip-path="url(#clip251)" style="stroke:#ffa500; stroke-linecap:round; stroke-linejoin:round; stroke-width:8; stroke-opacity:1; fill:none" points="1142.81,719.278 1154.64,773.083 1164.2,816.285 1174.19,861.16 1181.63,894.244 "/>
<polyline clip-path="url(#clip251)" style="stroke:#ffa500; stroke-linecap:round; stroke-linejoin:round; stroke-width:8; stroke-opacity:1; fill:none" points="1181.63,721.974 1196.18,788.012 1221.77,902.609 "/>
<polyline clip-path="url(#clip251)" style="stroke:#ffa500; stroke-linecap:round; stroke-linejoin:round; stroke-width:8; stroke-opacity:1; fill:none" points="1221.77,715.282 1235.33,776.998 1244.35,817.692 1253.2,857.503 1264.46,907.413 "/>
<polyline clip-path="url(#clip251)" style="stroke:#ffa500; stroke-linecap:round; stroke-linejoin:round; stroke-width:8; stroke-opacity:1; fill:none" points="1264.46,711.439 1279.87,781.568 1288.69,821.391 1297.07,859.041 1302.86,884.823 "/>
<polyline clip-path="url(#clip251)" style="stroke:#ffa500; stroke-linecap:round; stroke-linejoin:round; stroke-width:8; stroke-opacity:1; fill:none" points="1302.86,729.511 1316.85,792.952 1342.85,909.209 "/>
<polyline clip-path="url(#clip251)" style="stroke:#ffa500; stroke-linecap:round; stroke-linejoin:round; stroke-width:8; stroke-opacity:1; fill:none" points="1342.85,710.002 1357.69,777.568 1366.75,818.467 1375.49,857.766 1389.97,921.707 "/>
<polyline clip-path="url(#clip251)" style="stroke:#ffa500; stroke-linecap:round; stroke-linejoin:round; stroke-width:8; stroke-opacity:1; fill:none" points="1389.97,700.004 1403.44,761.563 1411.52,798.073 1435.75,906.412 "/>
<polyline clip-path="url(#clip251)" style="stroke:#ffa500; stroke-linecap:round; stroke-linejoin:round; stroke-width:8; stroke-opacity:1; fill:none" points="1435.75,712.24 1450.99,781.593 1459.83,821.502 1468.22,859.184 1476.48,895.909 "/>
<polyline clip-path="url(#clip251)" style="stroke:#ffa500; stroke-linecap:round; stroke-linejoin:round; stroke-width:8; stroke-opacity:1; fill:none" points="1476.48,720.642 1491.17,787.363 1516.69,901.667 "/>
<polyline clip-path="url(#clip251)" style="stroke:#ffa500; stroke-linecap:round; stroke-linejoin:round; stroke-width:8; stroke-opacity:1; fill:none" points="1516.69,716.035 1529.92,776.221 1538.92,816.852 1547.98,857.58 1558.68,905.041 "/>
<polyline clip-path="url(#clip251)" style="stroke:#ffa500; stroke-linecap:round; stroke-linejoin:round; stroke-width:8; stroke-opacity:1; fill:none" points="1558.68,713.337 1574.08,783.38 1583.7,826.817 1592.6,866.73 1596.25,882.977 "/>
<polyline clip-path="url(#clip251)" style="stroke:#ffa500; stroke-linecap:round; stroke-linejoin:round; stroke-width:8; stroke-opacity:1; fill:none" points="1596.25,730.988 1610.3,794.656 1636.39,911.239 "/>
<polyline clip-path="url(#clip251)" style="stroke:#ffa500; stroke-linecap:round; stroke-linejoin:round; stroke-width:8; stroke-opacity:1; fill:none" points="1636.39,708.378 1651.09,775.337 1660.88,819.542 1669.99,860.488 1684.7,925.366 "/>
<polyline clip-path="url(#clip251)" style="stroke:#ffa500; stroke-linecap:round; stroke-linejoin:round; stroke-width:8; stroke-opacity:1; fill:none" points="1684.7,697.077 1697.68,756.5 1705.95,793.904 1730.77,904.912 "/>
<polyline clip-path="url(#clip251)" style="stroke:#ffa500; stroke-linecap:round; stroke-linejoin:round; stroke-width:8; stroke-opacity:1; fill:none" points="1730.77,713.44 1745.99,782.693 1755.79,826.918 1764.7,866.891 1769.95,890.2 "/>
<polyline clip-path="url(#clip251)" style="stroke:#ffa500; stroke-linecap:round; stroke-linejoin:round; stroke-width:8; stroke-opacity:1; fill:none" points="1769.95,725.21 1784.2,789.904 1809.97,905.214 "/>
<polyline clip-path="url(#clip251)" style="stroke:#ffa500; stroke-linecap:round; stroke-linejoin:round; stroke-width:8; stroke-opacity:1; fill:none" points="1809.97,713.198 1824.36,778.675 1833.79,821.245 1842.45,860.173 1854.49,913.422 "/>
<polyline clip-path="url(#clip251)" style="stroke:#ffa500; stroke-linecap:round; stroke-linejoin:round; stroke-width:8; stroke-opacity:1; fill:none" points="1854.49,706.632 1869.35,774.372 1878.94,817.668 1888.35,859.951 1894.99,889.489 "/>
<polyline clip-path="url(#clip251)" style="stroke:#ffa500; stroke-linecap:round; stroke-linejoin:round; stroke-width:8; stroke-opacity:1; fill:none" points="1894.99,725.778 1909.2,790.285 1935,905.721 "/>
<polyline clip-path="url(#clip251)" style="stroke:#ffa500; stroke-linecap:round; stroke-linejoin:round; stroke-width:8; stroke-opacity:1; fill:none" points="1935,712.793 1949.51,778.816 1959,821.65 1967.67,860.599 1979.86,914.517 "/>
<polyline clip-path="url(#clip251)" style="stroke:#ffa500; stroke-linecap:round; stroke-linejoin:round; stroke-width:8; stroke-opacity:1; fill:none" points="1979.86,705.756 1994.56,772.78 2004.08,815.773 2014.32,861.778 2020.74,890.338 "/>
<polyline clip-path="url(#clip251)" style="stroke:#ffa500; stroke-linecap:round; stroke-linejoin:round; stroke-width:8; stroke-opacity:1; fill:none" points="2020.74,725.099 2035.01,789.844 2060.77,905.129 "/>
<polyline clip-path="url(#clip251)" style="stroke:#ffa500; stroke-linecap:round; stroke-linejoin:round; stroke-width:8; stroke-opacity:1; fill:none" points="2060.77,713.266 2075.14,778.649 2084.56,821.172 2093.22,860.098 2105.23,913.228 "/>
<polyline clip-path="url(#clip251)" style="stroke:#ffa500; stroke-linecap:round; stroke-linejoin:round; stroke-width:8; stroke-opacity:1; fill:none" points="2105.23,706.787 2120.12,774.648 2129.75,818.14 2139.06,859.965 2145.66,889.339 "/>
<polyline clip-path="url(#clip251)" style="stroke:#ffa500; stroke-linecap:round; stroke-linejoin:round; stroke-width:8; stroke-opacity:1; fill:none" points="2145.66,725.898 2159.87,790.364 2185.67,905.826 "/>
<polyline clip-path="url(#clip251)" style="stroke:#ffa500; stroke-linecap:round; stroke-linejoin:round; stroke-width:8; stroke-opacity:1; fill:none" points="2185.67,712.708 2200.2,778.834 2209.7,821.7 2218.37,860.653 2230.6,914.745 "/>
<polyline clip-path="url(#clip251)" style="stroke:#ffa500; stroke-linecap:round; stroke-linejoin:round; stroke-width:8; stroke-opacity:1; fill:none" points="2230.6,705.573 2245.27,772.441 2254.81,815.557 2265.26,862.497 2271.56,890.515 "/>
<polyline clip-path="url(#clip251)" style="stroke:#ffa500; stroke-linecap:round; stroke-linejoin:round; stroke-width:8; stroke-opacity:1; fill:none" points="2271.56,724.958 2281.6,770.625 2290.35,810.126 "/>
<path clip-path="url(#clip250)" d="M1874.56 322.316 L2279.25 322.316 L2279.25 166.796 L1874.56 166.796  Z" fill="#ffffff" fill-rule="evenodd" fill-opacity="1"/>
<polyline clip-path="url(#clip250)" style="stroke:#000000; stroke-linecap:round; stroke-linejoin:round; stroke-width:4; stroke-opacity:1; fill:none" points="1874.56,322.316 2279.25,322.316 2279.25,166.796 1874.56,166.796 1874.56,322.316 "/>
<polyline clip-path="url(#clip250)" style="stroke:#0000ff; stroke-linecap:round; stroke-linejoin:round; stroke-width:8; stroke-opacity:1; fill:none" points="1899.06,218.636 2046.06,218.636 "/>
<path clip-path="url(#clip250)" d="M2075.24 205.198 L2075.24 218.184 L2081.12 218.184 Q2084.38 218.184 2086.17 216.495 Q2087.95 214.805 2087.95 211.68 Q2087.95 208.578 2086.17 206.888 Q2084.38 205.198 2081.12 205.198 L2075.24 205.198 M2070.57 201.356 L2081.12 201.356 Q2086.93 201.356 2089.89 203.995 Q2092.88 206.61 2092.88 211.68 Q2092.88 216.795 2089.89 219.411 Q2086.93 222.027 2081.12 222.027 L2075.24 222.027 L2075.24 235.916 L2070.57 235.916 L2070.57 201.356 Z" fill="#000000" fill-rule="nonzero" fill-opacity="1" /><path clip-path="url(#clip250)" d="M2107.32 212.976 Q2103.9 212.976 2101.91 215.661 Q2099.92 218.323 2099.92 222.976 Q2099.92 227.629 2101.88 230.314 Q2103.88 232.976 2107.32 232.976 Q2110.73 232.976 2112.72 230.291 Q2114.71 227.606 2114.71 222.976 Q2114.71 218.37 2112.72 215.684 Q2110.73 212.976 2107.32 212.976 M2107.32 209.365 Q2112.88 209.365 2116.05 212.976 Q2119.22 216.587 2119.22 222.976 Q2119.22 229.342 2116.05 232.976 Q2112.88 236.587 2107.32 236.587 Q2101.75 236.587 2098.57 232.976 Q2095.43 229.342 2095.43 222.976 Q2095.43 216.587 2098.57 212.976 Q2101.75 209.365 2107.32 209.365 Z" fill="#000000" fill-rule="nonzero" fill-opacity="1" /><path clip-path="url(#clip250)" d="M2142.81 210.754 L2142.81 214.782 Q2141 213.856 2139.06 213.393 Q2137.12 212.93 2135.03 212.93 Q2131.86 212.93 2130.26 213.902 Q2128.69 214.874 2128.69 216.819 Q2128.69 218.3 2129.82 219.157 Q2130.96 219.99 2134.38 220.754 L2135.84 221.078 Q2140.38 222.05 2142.28 223.832 Q2144.2 225.592 2144.2 228.763 Q2144.2 232.374 2141.33 234.481 Q2138.48 236.587 2133.48 236.587 Q2131.4 236.587 2129.13 236.17 Q2126.88 235.777 2124.38 234.967 L2124.38 230.569 Q2126.75 231.795 2129.04 232.42 Q2131.33 233.022 2133.57 233.022 Q2136.58 233.022 2138.2 232.004 Q2139.82 230.962 2139.82 229.087 Q2139.82 227.351 2138.64 226.425 Q2137.49 225.499 2133.53 224.643 L2132.05 224.295 Q2128.09 223.462 2126.33 221.749 Q2124.57 220.013 2124.57 217.004 Q2124.57 213.346 2127.16 211.356 Q2129.75 209.365 2134.52 209.365 Q2136.88 209.365 2138.97 209.712 Q2141.05 210.059 2142.81 210.754 Z" fill="#000000" fill-rule="nonzero" fill-opacity="1" /><path clip-path="url(#clip250)" d="M2150.98 209.99 L2155.24 209.99 L2155.24 235.916 L2150.98 235.916 L2150.98 209.99 M2150.98 199.897 L2155.24 199.897 L2155.24 205.291 L2150.98 205.291 L2150.98 199.897 Z" fill="#000000" fill-rule="nonzero" fill-opacity="1" /><path clip-path="url(#clip250)" d="M2168.37 202.629 L2168.37 209.99 L2177.14 209.99 L2177.14 213.3 L2168.37 213.3 L2168.37 227.374 Q2168.37 230.545 2169.22 231.448 Q2170.1 232.351 2172.76 232.351 L2177.14 232.351 L2177.14 235.916 L2172.76 235.916 Q2167.83 235.916 2165.96 234.087 Q2164.08 232.235 2164.08 227.374 L2164.08 213.3 L2160.96 213.3 L2160.96 209.99 L2164.08 209.99 L2164.08 202.629 L2168.37 202.629 Z" fill="#000000" fill-rule="nonzero" fill-opacity="1" /><path clip-path="url(#clip250)" d="M2182.74 209.99 L2187 209.99 L2187 235.916 L2182.74 235.916 L2182.74 209.99 M2182.74 199.897 L2187 199.897 L2187 205.291 L2182.74 205.291 L2182.74 199.897 Z" fill="#000000" fill-rule="nonzero" fill-opacity="1" /><path clip-path="url(#clip250)" d="M2205.96 212.976 Q2202.53 212.976 2200.54 215.661 Q2198.55 218.323 2198.55 222.976 Q2198.55 227.629 2200.52 230.314 Q2202.51 232.976 2205.96 232.976 Q2209.36 232.976 2211.35 230.291 Q2213.34 227.606 2213.34 222.976 Q2213.34 218.37 2211.35 215.684 Q2209.36 212.976 2205.96 212.976 M2205.96 209.365 Q2211.51 209.365 2214.68 212.976 Q2217.86 216.587 2217.86 222.976 Q2217.86 229.342 2214.68 232.976 Q2211.51 236.587 2205.96 236.587 Q2200.38 236.587 2197.21 232.976 Q2194.06 229.342 2194.06 222.976 Q2194.06 216.587 2197.21 212.976 Q2200.38 209.365 2205.96 209.365 Z" fill="#000000" fill-rule="nonzero" fill-opacity="1" /><path clip-path="url(#clip250)" d="M2246.47 220.268 L2246.47 235.916 L2242.21 235.916 L2242.21 220.407 Q2242.21 216.726 2240.77 214.897 Q2239.34 213.069 2236.47 213.069 Q2233.02 213.069 2231.03 215.268 Q2229.04 217.467 2229.04 221.263 L2229.04 235.916 L2224.75 235.916 L2224.75 209.99 L2229.04 209.99 L2229.04 214.018 Q2230.56 211.68 2232.62 210.522 Q2234.71 209.365 2237.42 209.365 Q2241.88 209.365 2244.18 212.143 Q2246.47 214.897 2246.47 220.268 Z" fill="#000000" fill-rule="nonzero" fill-opacity="1" /><polyline clip-path="url(#clip250)" style="stroke:#ffa500; stroke-linecap:round; stroke-linejoin:round; stroke-width:8; stroke-opacity:1; fill:none" points="1899.06,270.476 2046.06,270.476 "/>
<path clip-path="url(#clip250)" d="M2083.76 287.756 L2070.57 253.196 L2075.45 253.196 L2086.4 282.293 L2097.37 253.196 L2102.23 253.196 L2089.06 287.756 L2083.76 287.756 Z" fill="#000000" fill-rule="nonzero" fill-opacity="1" /><path clip-path="url(#clip250)" d="M2125.59 273.728 L2125.59 275.811 L2106 275.811 Q2106.28 280.209 2108.64 282.524 Q2111.03 284.816 2115.26 284.816 Q2117.72 284.816 2120.01 284.214 Q2122.32 283.612 2124.59 282.409 L2124.59 286.436 Q2122.3 287.408 2119.89 287.918 Q2117.49 288.427 2115.01 288.427 Q2108.81 288.427 2105.17 284.816 Q2101.56 281.205 2101.56 275.047 Q2101.56 268.682 2104.99 264.955 Q2108.44 261.205 2114.27 261.205 Q2119.5 261.205 2122.53 264.585 Q2125.59 267.941 2125.59 273.728 M2121.33 272.478 Q2121.28 268.983 2119.36 266.899 Q2117.46 264.816 2114.31 264.816 Q2110.75 264.816 2108.6 266.83 Q2106.47 268.844 2106.14 272.501 L2121.33 272.478 Z" fill="#000000" fill-rule="nonzero" fill-opacity="1" /><path clip-path="url(#clip250)" d="M2132.58 251.737 L2136.84 251.737 L2136.84 287.756 L2132.58 287.756 L2132.58 251.737 Z" fill="#000000" fill-rule="nonzero" fill-opacity="1" /><path clip-path="url(#clip250)" d="M2155.8 264.816 Q2152.37 264.816 2150.38 267.501 Q2148.39 270.163 2148.39 274.816 Q2148.39 279.469 2150.36 282.154 Q2152.35 284.816 2155.8 284.816 Q2159.2 284.816 2161.19 282.131 Q2163.18 279.446 2163.18 274.816 Q2163.18 270.21 2161.19 267.524 Q2159.2 264.816 2155.8 264.816 M2155.8 261.205 Q2161.35 261.205 2164.52 264.816 Q2167.69 268.427 2167.69 274.816 Q2167.69 281.182 2164.52 284.816 Q2161.35 288.427 2155.8 288.427 Q2150.22 288.427 2147.05 284.816 Q2143.9 281.182 2143.9 274.816 Q2143.9 268.427 2147.05 264.816 Q2150.22 261.205 2155.8 261.205 Z" fill="#000000" fill-rule="nonzero" fill-opacity="1" /><path clip-path="url(#clip250)" d="M2193.41 262.825 L2193.41 266.807 Q2191.61 265.811 2189.78 265.325 Q2187.97 264.816 2186.12 264.816 Q2181.98 264.816 2179.68 267.455 Q2177.39 270.071 2177.39 274.816 Q2177.39 279.561 2179.68 282.2 Q2181.98 284.816 2186.12 284.816 Q2187.97 284.816 2189.78 284.33 Q2191.61 283.821 2193.41 282.825 L2193.41 286.76 Q2191.63 287.594 2189.71 288.01 Q2187.81 288.427 2185.66 288.427 Q2179.8 288.427 2176.35 284.746 Q2172.9 281.066 2172.9 274.816 Q2172.9 268.473 2176.37 264.839 Q2179.87 261.205 2185.93 261.205 Q2187.9 261.205 2189.78 261.622 Q2191.65 262.015 2193.41 262.825 Z" fill="#000000" fill-rule="nonzero" fill-opacity="1" /><path clip-path="url(#clip250)" d="M2200.82 261.83 L2205.08 261.83 L2205.08 287.756 L2200.82 287.756 L2200.82 261.83 M2200.82 251.737 L2205.08 251.737 L2205.08 257.131 L2200.82 257.131 L2200.82 251.737 Z" fill="#000000" fill-rule="nonzero" fill-opacity="1" /><path clip-path="url(#clip250)" d="M2218.2 254.469 L2218.2 261.83 L2226.98 261.83 L2226.98 265.14 L2218.2 265.14 L2218.2 279.214 Q2218.2 282.385 2219.06 283.288 Q2219.94 284.191 2222.6 284.191 L2226.98 284.191 L2226.98 287.756 L2222.6 287.756 Q2217.67 287.756 2215.8 285.927 Q2213.92 284.075 2213.92 279.214 L2213.92 265.14 L2210.8 265.14 L2210.8 261.83 L2213.92 261.83 L2213.92 254.469 L2218.2 254.469 Z" fill="#000000" fill-rule="nonzero" fill-opacity="1" /><path clip-path="url(#clip250)" d="M2243.37 290.163 Q2241.56 294.793 2239.85 296.205 Q2238.13 297.617 2235.26 297.617 L2231.86 297.617 L2231.86 294.052 L2234.36 294.052 Q2236.12 294.052 2237.09 293.219 Q2238.06 292.385 2239.24 289.283 L2240.01 287.339 L2229.52 261.83 L2234.04 261.83 L2242.14 282.108 L2250.24 261.83 L2254.75 261.83 L2243.37 290.163 Z" fill="#000000" fill-rule="nonzero" fill-opacity="1" /></svg>
